<mxfile host="app.diagrams.net" modified="2022-10-06T13:46:25.853Z" agent="5.0 (Windows NT 6.1; Win64; x64) AppleWebKit/537.36 (KHTML, like Gecko) Chrome/106.0.0.0 Safari/537.36" etag="sNzwcoMtoFdJgbkuUavU" version="20.4.0" type="github">
  <diagram id="PDKIA7lsRLseHfcBO8Ua" name="service">
    <mxGraphModel dx="1662" dy="912" grid="1" gridSize="10" guides="1" tooltips="1" connect="1" arrows="1" fold="1" page="1" pageScale="1" pageWidth="827" pageHeight="1169" math="0" shadow="0">
      <root>
        <mxCell id="0" />
        <mxCell id="1" parent="0" />
        <mxCell id="b99Ah2XA37YD6QNn5OcU-2" value="&lt;&lt; interface &gt;&gt;&#xa;ProductService" style="swimlane;fontStyle=1;align=center;verticalAlign=middle;childLayout=stackLayout;horizontal=1;startSize=40;horizontalStack=0;resizeParent=1;resizeLast=0;collapsible=1;marginBottom=0;rounded=0;shadow=0;strokeWidth=1;" vertex="1" parent="1">
          <mxGeometry x="80" y="20" width="370" height="300" as="geometry">
            <mxRectangle x="260" y="20" width="170" height="26" as="alternateBounds" />
          </mxGeometry>
        </mxCell>
        <mxCell id="b99Ah2XA37YD6QNn5OcU-3" value="" style="line;html=1;strokeWidth=1;align=left;verticalAlign=middle;spacingTop=-1;spacingLeft=3;spacingRight=3;rotatable=0;labelPosition=right;points=[];portConstraint=eastwest;" vertex="1" parent="b99Ah2XA37YD6QNn5OcU-2">
          <mxGeometry y="40" width="370" height="20" as="geometry" />
        </mxCell>
        <mxCell id="b99Ah2XA37YD6QNn5OcU-4" value="&lt;p style=&quot;margin-top: 0pt; margin-bottom: 0pt; margin-left: 0in; direction: ltr; unicode-bidi: embed; word-break: normal;&quot;&gt;&lt;span style=&quot;font-size: 9pt; font-family: Calibri;&quot;&gt;+&lt;/span&gt;&lt;span style=&quot;font-size: 9pt; font-family: Calibri;&quot;&gt; &lt;/span&gt;&lt;span style=&quot;font-size: 9pt; font-family: Calibri;&quot;&gt;getProducts&amp;nbsp;&lt;/span&gt;&lt;span style=&quot;font-size: 9pt; font-family: Calibri;&quot;&gt;( product : &lt;/span&gt;&lt;span style=&quot;font-size: 9pt; font-family: Calibri;&quot;&gt;Product &lt;/span&gt;&lt;span style=&quot;font-size: 9pt; font-family: Calibri;&quot;&gt;) &lt;/span&gt;&lt;span style=&quot;font-size: 9pt; font-family: Calibri;&quot;&gt;:&amp;nbsp;&lt;/span&gt;&lt;span style=&quot;font-size: 9pt; font-family: Calibri;&quot;&gt;List&amp;lt;Product&lt;/span&gt;&lt;span style=&quot;font-size: 9pt; font-family: Calibri;&quot;&gt;&amp;gt;&lt;/span&gt;&lt;/p&gt;&lt;p style=&quot;margin-top: 0pt; margin-bottom: 0pt; margin-left: 0in; direction: ltr; unicode-bidi: embed; word-break: normal;&quot;&gt;&lt;/p&gt;&lt;span style=&quot;font-family: Calibri;&quot;&gt;+ getProductsAdmin ( product :&amp;nbsp;&lt;/span&gt;&lt;font face=&quot;Calibri&quot;&gt;Product ) :&amp;nbsp;List&amp;lt;Product&amp;gt;&lt;br&gt;+ getProductsOne ( productId :&amp;nbsp;&lt;/font&gt;&lt;span style=&quot;font-family: Calibri;&quot;&gt;Integer&amp;nbsp;&lt;/span&gt;&lt;font face=&quot;Calibri&quot;&gt;) : Product&lt;br&gt;&lt;/font&gt;&lt;p style=&quot;margin-top: 0pt; margin-bottom: 0pt; margin-left: 0in; direction: ltr; unicode-bidi: embed; word-break: normal;&quot;&gt;&lt;span style=&quot;font-size: 9pt; font-family: Calibri;&quot;&gt;+&lt;/span&gt;&lt;span style=&quot;font-size: 9pt; font-family: Calibri;&quot;&gt; &lt;/span&gt;&lt;span style=&quot;font-size: 9pt; font-family: Calibri;&quot;&gt;postProducts&amp;nbsp;&lt;/span&gt;&lt;span style=&quot;font-size: 9pt; font-family: Calibri;&quot;&gt;( product : Product ) : Integer&lt;/span&gt;&lt;/p&gt;&lt;p style=&quot;margin-top: 0pt; margin-bottom: 0pt; margin-left: 0in; direction: ltr; unicode-bidi: embed; word-break: normal;&quot;&gt;&lt;span style=&quot;font-size: 9pt; font-family: Calibri;&quot;&gt;+&lt;/span&gt;&lt;span style=&quot;font-size: 9pt; font-family: Calibri;&quot;&gt; &lt;/span&gt;&lt;span style=&quot;font-size: 9pt; font-family: Calibri;&quot;&gt;getProductId&amp;nbsp;&lt;/span&gt;&lt;span style=&quot;font-size: 9pt; font-family: Calibri;&quot;&gt;( &lt;/span&gt;&lt;span style=&quot;font-size: 9pt; font-family: Calibri;&quot;&gt;productImg&lt;/span&gt;&lt;span style=&quot;font-size: 9pt; font-family: Calibri;&quot;&gt; : String ) : Integer&lt;/span&gt;&lt;span style=&quot;font-family: Calibri; background-color: initial;&quot;&gt;&amp;nbsp;&lt;/span&gt;&lt;/p&gt;&lt;span style=&quot;font-family: Calibri;&quot;&gt;+ updateProduct (userId :&amp;nbsp;&lt;/span&gt;&lt;span style=&quot;font-family: Calibri;&quot;&gt;Integer&amp;nbsp;&lt;/span&gt;&lt;span style=&quot;font-family: Calibri; background-color: initial;&quot;&gt;,&lt;br&gt;&lt;/span&gt;&lt;blockquote style=&quot;margin: 0 0 0 40px; border: none; padding: 0px;&quot;&gt;&lt;blockquote style=&quot;margin: 0 0 0 40px; border: none; padding: 0px;&quot;&gt;&lt;span style=&quot;font-family: Calibri; background-color: initial;&quot;&gt;&amp;nbsp;productImage :&amp;nbsp;&lt;/span&gt;&lt;span style=&quot;font-family: Calibri;&quot;&gt;String&amp;nbsp;&lt;/span&gt;&lt;span style=&quot;font-family: Calibri; background-color: initial;&quot;&gt;,&lt;br&gt;&lt;/span&gt;&lt;/blockquote&gt;&lt;blockquote style=&quot;margin: 0 0 0 40px; border: none; padding: 0px;&quot;&gt;&lt;span style=&quot;font-family: Calibri; background-color: initial;&quot;&gt;&amp;nbsp;productName :&amp;nbsp;&lt;/span&gt;&lt;span style=&quot;font-family: Calibri;&quot;&gt;String&amp;nbsp;&lt;/span&gt;&lt;span style=&quot;font-family: Calibri; background-color: initial;&quot;&gt;,&lt;br&gt;&lt;/span&gt;&lt;/blockquote&gt;&lt;blockquote style=&quot;margin: 0 0 0 40px; border: none; padding: 0px;&quot;&gt;&lt;span style=&quot;font-family: Calibri; background-color: initial;&quot;&gt;&amp;nbsp;productDescription :&amp;nbsp;&lt;/span&gt;&lt;span style=&quot;font-family: Calibri;&quot;&gt;String&amp;nbsp;&lt;/span&gt;&lt;span style=&quot;font-family: Calibri; background-color: initial;&quot;&gt;,&lt;br&gt;&lt;/span&gt;&lt;/blockquote&gt;&lt;blockquote style=&quot;margin: 0 0 0 40px; border: none; padding: 0px;&quot;&gt;&lt;span style=&quot;font-family: Calibri; background-color: initial;&quot;&gt;&amp;nbsp;price :&amp;nbsp;&lt;/span&gt;&lt;span style=&quot;font-family: Calibri;&quot;&gt;Integer&lt;/span&gt;&lt;span style=&quot;font-family: Calibri; background-color: initial;&quot;&gt;,&lt;br&gt;&lt;/span&gt;&lt;/blockquote&gt;&lt;blockquote style=&quot;margin: 0 0 0 40px; border: none; padding: 0px;&quot;&gt;&lt;span style=&quot;font-family: Calibri; background-color: initial;&quot;&gt;&amp;nbsp;release :&amp;nbsp;&lt;/span&gt;&lt;span style=&quot;font-family: Calibri;&quot;&gt;boolean&lt;/span&gt;&lt;span style=&quot;font-family: Calibri; background-color: initial;&quot;&gt;) :&amp;nbsp; void&lt;br&gt;&lt;/span&gt;&lt;/blockquote&gt;&lt;/blockquote&gt;&lt;font face=&quot;Calibri&quot;&gt;+ whenUploadFileUsingJsch_thenSuccess&amp;nbsp;( newName :&amp;nbsp;&lt;/font&gt;&lt;span style=&quot;font-family: Calibri;&quot;&gt;File&amp;nbsp;&lt;/span&gt;&lt;font face=&quot;Calibri&quot;&gt;) : void&lt;br&gt;+ whenDeleteFileUsingJsch_thenSuccess ( newName :&amp;nbsp;&lt;/font&gt;&lt;span style=&quot;font-family: Calibri;&quot;&gt;String&amp;nbsp;&lt;/span&gt;&lt;font face=&quot;Calibri&quot;&gt;) : void&lt;br&gt;+ postProductImageFolder ( file :&amp;nbsp;&lt;/font&gt;&lt;span style=&quot;font-family: Calibri;&quot;&gt;MultipartFile&amp;nbsp;&lt;/span&gt;&lt;font face=&quot;Calibri&quot;&gt;) : File&lt;br&gt;+ deleteProduct ( productId :&amp;nbsp;&lt;/font&gt;&lt;span style=&quot;font-family: Calibri;&quot;&gt;Integer&amp;nbsp;&lt;/span&gt;&lt;font face=&quot;Calibri&quot;&gt;) : void&lt;br&gt;+ deleteProductImage ( fileName :&amp;nbsp;&lt;/font&gt;&lt;span style=&quot;font-family: Calibri;&quot;&gt;String&amp;nbsp;&lt;/span&gt;&lt;font face=&quot;Calibri&quot;&gt;) : void&lt;br&gt;&lt;/font&gt;" style="text;align=left;verticalAlign=middle;resizable=0;points=[];autosize=1;strokeColor=none;fillColor=none;spacing=2;html=1;spacingTop=-1;" vertex="1" parent="b99Ah2XA37YD6QNn5OcU-2">
          <mxGeometry y="60" width="370" height="240" as="geometry" />
        </mxCell>
        <mxCell id="b99Ah2XA37YD6QNn5OcU-5" style="edgeStyle=orthogonalEdgeStyle;rounded=0;orthogonalLoop=1;jettySize=auto;html=1;exitX=0.5;exitY=0;exitDx=0;exitDy=0;entryX=0.5;entryY=1;entryDx=0;entryDy=0;dashed=1;" edge="1" parent="1" source="b99Ah2XA37YD6QNn5OcU-6" target="b99Ah2XA37YD6QNn5OcU-2">
          <mxGeometry relative="1" as="geometry" />
        </mxCell>
        <mxCell id="b99Ah2XA37YD6QNn5OcU-6" value="&lt;&lt; Service &gt;&gt;&#xa;ProductServiceImpl" style="swimlane;fontStyle=1;align=center;verticalAlign=middle;childLayout=stackLayout;horizontal=1;startSize=40;horizontalStack=0;resizeParent=1;resizeLast=0;collapsible=1;marginBottom=0;rounded=0;shadow=0;strokeWidth=1;" vertex="1" parent="1">
          <mxGeometry x="80" y="370" width="370" height="370" as="geometry">
            <mxRectangle x="260" y="180" width="170" height="26" as="alternateBounds" />
          </mxGeometry>
        </mxCell>
        <mxCell id="b99Ah2XA37YD6QNn5OcU-7" value="- repository : ProductRepository&lt;br&gt;-&amp;nbsp;remoteHost : String&lt;br&gt;-&amp;nbsp;username : String&lt;br&gt;-&amp;nbsp;password : String&lt;br&gt;-&amp;nbsp;setupJsch () :&amp;nbsp;ChannelSftp" style="text;align=left;verticalAlign=middle;resizable=0;points=[];autosize=1;strokeColor=none;fillColor=none;spacing=2;spacingTop=1;spacingBottom=0;html=1;" vertex="1" parent="b99Ah2XA37YD6QNn5OcU-6">
          <mxGeometry y="40" width="370" height="80" as="geometry" />
        </mxCell>
        <mxCell id="b99Ah2XA37YD6QNn5OcU-8" value="" style="line;html=1;strokeWidth=1;align=left;verticalAlign=middle;spacingTop=-1;spacingLeft=3;spacingRight=3;rotatable=0;labelPosition=right;points=[];portConstraint=eastwest;" vertex="1" parent="b99Ah2XA37YD6QNn5OcU-6">
          <mxGeometry y="120" width="370" height="10" as="geometry" />
        </mxCell>
        <mxCell id="b99Ah2XA37YD6QNn5OcU-9" value="&lt;p style=&quot;margin-top: 0pt; margin-bottom: 0pt; margin-left: 0in; direction: ltr; unicode-bidi: embed; word-break: normal;&quot;&gt;&lt;span style=&quot;font-size: 9pt; font-family: Calibri;&quot;&gt;+&lt;/span&gt;&lt;span style=&quot;font-size: 9pt; font-family: Calibri;&quot;&gt;&amp;nbsp;&lt;/span&gt;&lt;span style=&quot;font-size: 9pt; font-family: Calibri;&quot;&gt;getProducts&amp;nbsp;&lt;/span&gt;&lt;span style=&quot;font-size: 9pt; font-family: Calibri;&quot;&gt;( product :&amp;nbsp;&lt;/span&gt;&lt;span style=&quot;font-size: 9pt; font-family: Calibri;&quot;&gt;Product&amp;nbsp;&lt;/span&gt;&lt;span style=&quot;font-size: 9pt; font-family: Calibri;&quot;&gt;)&amp;nbsp;&lt;/span&gt;&lt;span style=&quot;font-size: 9pt; font-family: Calibri;&quot;&gt;:&amp;nbsp;&lt;/span&gt;&lt;span style=&quot;font-size: 9pt; font-family: Calibri;&quot;&gt;List&amp;lt;Product&lt;/span&gt;&lt;span style=&quot;font-size: 9pt; font-family: Calibri;&quot;&gt;&amp;gt;&lt;/span&gt;&lt;/p&gt;&lt;p style=&quot;margin-top: 0pt; margin-bottom: 0pt; margin-left: 0in; direction: ltr; unicode-bidi: embed; word-break: normal;&quot;&gt;&lt;/p&gt;&lt;p style=&quot;margin-top: 0pt; margin-bottom: 0pt; margin-left: 0in; direction: ltr; unicode-bidi: embed; word-break: normal;&quot;&gt;&lt;span style=&quot;font-family: Calibri;&quot;&gt;+ getProductsAdmin ( product :&amp;nbsp;&lt;/span&gt;&lt;font face=&quot;Calibri&quot;&gt;Product ) :&amp;nbsp;List&amp;lt;Product&amp;gt;&lt;br&gt;+ getProductsOne ( productId :&amp;nbsp;&lt;/font&gt;&lt;span style=&quot;font-family: Calibri;&quot;&gt;Integer&amp;nbsp;&lt;/span&gt;&lt;font face=&quot;Calibri&quot;&gt;) : Product&lt;br&gt;&lt;/font&gt;&lt;/p&gt;&lt;p style=&quot;margin-top: 0pt; margin-bottom: 0pt; margin-left: 0in; direction: ltr; unicode-bidi: embed; word-break: normal;&quot;&gt;&lt;span style=&quot;font-size: 9pt; font-family: Calibri;&quot;&gt;+&lt;/span&gt;&lt;span style=&quot;font-size: 9pt; font-family: Calibri;&quot;&gt;&amp;nbsp;&lt;/span&gt;&lt;span style=&quot;font-size: 9pt; font-family: Calibri;&quot;&gt;postProducts&amp;nbsp;&lt;/span&gt;&lt;span style=&quot;font-size: 9pt; font-family: Calibri;&quot;&gt;( product : Product ) : Integer&lt;/span&gt;&lt;/p&gt;&lt;p style=&quot;margin-top: 0pt; margin-bottom: 0pt; margin-left: 0in; direction: ltr; unicode-bidi: embed; word-break: normal;&quot;&gt;&lt;span style=&quot;font-size: 9pt; font-family: Calibri;&quot;&gt;+&lt;/span&gt;&lt;span style=&quot;font-size: 9pt; font-family: Calibri;&quot;&gt;&amp;nbsp;&lt;/span&gt;&lt;span style=&quot;font-size: 9pt; font-family: Calibri;&quot;&gt;getProductId&amp;nbsp;&lt;/span&gt;&lt;span style=&quot;font-size: 9pt; font-family: Calibri;&quot;&gt;(&amp;nbsp;&lt;/span&gt;&lt;span style=&quot;font-size: 9pt; font-family: Calibri;&quot;&gt;productImg&lt;/span&gt;&lt;span style=&quot;font-size: 9pt; font-family: Calibri;&quot;&gt;&amp;nbsp;: String ) : Integer&lt;/span&gt;&lt;span style=&quot;font-family: Calibri; background-color: initial;&quot;&gt;&amp;nbsp;&lt;/span&gt;&lt;/p&gt;&lt;p style=&quot;margin-top: 0pt; margin-bottom: 0pt; margin-left: 0in; direction: ltr; unicode-bidi: embed; word-break: normal;&quot;&gt;&lt;span style=&quot;font-family: Calibri;&quot;&gt;+ updateProduct (userId :&amp;nbsp;&lt;/span&gt;&lt;span style=&quot;font-family: Calibri;&quot;&gt;Integer&amp;nbsp;&lt;/span&gt;&lt;span style=&quot;background-color: initial; font-family: Calibri;&quot;&gt;,&lt;/span&gt;&lt;/p&gt;&lt;blockquote style=&quot;margin: 0 0 0 40px; border: none; padding: 0px;&quot;&gt;&lt;blockquote style=&quot;margin: 0 0 0 40px; border: none; padding: 0px;&quot;&gt;&lt;p style=&quot;margin-top: 0pt; margin-bottom: 0pt; margin-left: 0in; direction: ltr; unicode-bidi: embed; word-break: normal;&quot;&gt;&lt;span style=&quot;background-color: initial; font-family: Calibri;&quot;&gt;&amp;nbsp;productImage :&amp;nbsp;&lt;/span&gt;&lt;span style=&quot;font-family: Calibri;&quot;&gt;String&amp;nbsp;&lt;/span&gt;&lt;span style=&quot;background-color: initial; font-family: Calibri;&quot;&gt;,&lt;/span&gt;&lt;/p&gt;&lt;/blockquote&gt;&lt;blockquote style=&quot;margin: 0 0 0 40px; border: none; padding: 0px;&quot;&gt;&lt;p style=&quot;margin-top: 0pt; margin-bottom: 0pt; margin-left: 0in; direction: ltr; unicode-bidi: embed; word-break: normal;&quot;&gt;&lt;span style=&quot;background-color: initial; font-family: Calibri;&quot;&gt;&amp;nbsp;productName :&amp;nbsp;&lt;/span&gt;&lt;span style=&quot;font-family: Calibri;&quot;&gt;String&amp;nbsp;&lt;/span&gt;&lt;span style=&quot;background-color: initial; font-family: Calibri;&quot;&gt;,&lt;/span&gt;&lt;/p&gt;&lt;/blockquote&gt;&lt;blockquote style=&quot;margin: 0 0 0 40px; border: none; padding: 0px;&quot;&gt;&lt;p style=&quot;margin-top: 0pt; margin-bottom: 0pt; margin-left: 0in; direction: ltr; unicode-bidi: embed; word-break: normal;&quot;&gt;&lt;span style=&quot;background-color: initial; font-family: Calibri;&quot;&gt;&amp;nbsp;productDescription :&amp;nbsp;&lt;/span&gt;&lt;span style=&quot;font-family: Calibri;&quot;&gt;String&amp;nbsp;&lt;/span&gt;&lt;span style=&quot;background-color: initial; font-family: Calibri;&quot;&gt;,&lt;/span&gt;&lt;/p&gt;&lt;/blockquote&gt;&lt;blockquote style=&quot;margin: 0 0 0 40px; border: none; padding: 0px;&quot;&gt;&lt;p style=&quot;margin-top: 0pt; margin-bottom: 0pt; margin-left: 0in; direction: ltr; unicode-bidi: embed; word-break: normal;&quot;&gt;&lt;span style=&quot;background-color: initial; font-family: Calibri;&quot;&gt;&amp;nbsp;price :&amp;nbsp;&lt;/span&gt;&lt;span style=&quot;font-family: Calibri;&quot;&gt;Integer&lt;/span&gt;&lt;span style=&quot;background-color: initial; font-family: Calibri;&quot;&gt;,&lt;/span&gt;&lt;/p&gt;&lt;/blockquote&gt;&lt;blockquote style=&quot;margin: 0 0 0 40px; border: none; padding: 0px;&quot;&gt;&lt;p style=&quot;margin-top: 0pt; margin-bottom: 0pt; margin-left: 0in; direction: ltr; unicode-bidi: embed; word-break: normal;&quot;&gt;&lt;span style=&quot;background-color: initial; font-family: Calibri;&quot;&gt;&amp;nbsp;release :&amp;nbsp;&lt;/span&gt;&lt;span style=&quot;font-family: Calibri;&quot;&gt;boolean&lt;/span&gt;&lt;span style=&quot;background-color: initial; font-family: Calibri;&quot;&gt;) :&amp;nbsp; void&lt;br&gt;&lt;/span&gt;&lt;/p&gt;&lt;/blockquote&gt;&lt;/blockquote&gt;&lt;p style=&quot;margin-top: 0pt; margin-bottom: 0pt; margin-left: 0in; direction: ltr; unicode-bidi: embed; word-break: normal;&quot;&gt;&lt;font face=&quot;Calibri&quot;&gt;+ whenUploadFileUsingJsch_thenSuccess&amp;nbsp;( newName :&amp;nbsp;&lt;/font&gt;&lt;span style=&quot;font-family: Calibri;&quot;&gt;File&amp;nbsp;&lt;/span&gt;&lt;font face=&quot;Calibri&quot;&gt;) : void&lt;br&gt;+ whenDeleteFileUsingJsch_thenSuccess ( newName :&amp;nbsp;&lt;/font&gt;&lt;span style=&quot;font-family: Calibri;&quot;&gt;String&amp;nbsp;&lt;/span&gt;&lt;font face=&quot;Calibri&quot;&gt;) : void&lt;br&gt;+ postProductImageFolder ( file :&amp;nbsp;&lt;/font&gt;&lt;span style=&quot;font-family: Calibri;&quot;&gt;MultipartFile&amp;nbsp;&lt;/span&gt;&lt;font face=&quot;Calibri&quot;&gt;) : File&lt;br&gt;+ deleteProduct ( productId :&amp;nbsp;&lt;/font&gt;&lt;span style=&quot;font-family: Calibri;&quot;&gt;Integer&amp;nbsp;&lt;/span&gt;&lt;font face=&quot;Calibri&quot;&gt;) : void&lt;br&gt;+ deleteProductImage ( fileName :&amp;nbsp;&lt;/font&gt;&lt;span style=&quot;font-family: Calibri;&quot;&gt;String&amp;nbsp;&lt;/span&gt;&lt;font face=&quot;Calibri&quot;&gt;) : void&lt;/font&gt;&lt;br&gt;&lt;/p&gt;" style="text;align=left;verticalAlign=middle;resizable=0;points=[];autosize=1;strokeColor=none;fillColor=none;spacing=2;html=1;spacingTop=-1;" vertex="1" parent="b99Ah2XA37YD6QNn5OcU-6">
          <mxGeometry y="130" width="370" height="240" as="geometry" />
        </mxCell>
        <mxCell id="b99Ah2XA37YD6QNn5OcU-10" style="edgeStyle=orthogonalEdgeStyle;rounded=0;orthogonalLoop=1;jettySize=auto;html=1;exitX=0.5;exitY=0;exitDx=0;exitDy=0;entryX=0.5;entryY=1;entryDx=0;entryDy=0;endArrow=none;endFill=0;" edge="1" parent="1" source="b99Ah2XA37YD6QNn5OcU-11" target="b99Ah2XA37YD6QNn5OcU-6">
          <mxGeometry relative="1" as="geometry" />
        </mxCell>
        <mxCell id="b99Ah2XA37YD6QNn5OcU-11" value="&lt;&lt; interface &gt;&gt;&#xa;ProductRepository" style="swimlane;fontStyle=1;align=center;verticalAlign=middle;childLayout=stackLayout;horizontal=1;startSize=30;horizontalStack=0;resizeParent=1;resizeLast=0;collapsible=1;marginBottom=0;rounded=0;shadow=0;strokeWidth=1;" vertex="1" parent="1">
          <mxGeometry x="20" y="810" width="490" height="210" as="geometry">
            <mxRectangle x="225" y="360" width="170" height="26" as="alternateBounds" />
          </mxGeometry>
        </mxCell>
        <mxCell id="b99Ah2XA37YD6QNn5OcU-12" value="" style="line;html=1;strokeWidth=1;align=left;verticalAlign=middle;spacingTop=-1;spacingLeft=3;spacingRight=3;rotatable=0;labelPosition=right;points=[];portConstraint=eastwest;" vertex="1" parent="b99Ah2XA37YD6QNn5OcU-11">
          <mxGeometry y="30" width="490" height="20" as="geometry" />
        </mxCell>
        <mxCell id="b99Ah2XA37YD6QNn5OcU-13" value="+&amp;nbsp;findByProductNameLikeAndReleaseIs ( name :String&amp;nbsp;, release :boolean&amp;nbsp;) :&amp;nbsp;List&amp;lt;Product&amp;gt;&lt;br&gt;+ findByProductNameLike( name : String ) : List&amp;lt;Product&amp;gt;&lt;br&gt;+ findByProductImageLike(image : String&amp;nbsp;) : Product&lt;br&gt;+&amp;nbsp;findAllByOrderByProductIdAsc() :&amp;nbsp;List&amp;lt;Product&amp;gt;&lt;br&gt;+&amp;nbsp;&lt;span style=&quot;background-color: initial;&quot;&gt;updateProduct ( userId :&amp;nbsp;&lt;/span&gt;Integer&lt;span style=&quot;background-color: initial;&quot;&gt;,&lt;br&gt;&lt;/span&gt;&lt;blockquote style=&quot;margin: 0 0 0 40px; border: none; padding: 0px;&quot;&gt;&lt;blockquote style=&quot;margin: 0 0 0 40px; border: none; padding: 0px;&quot;&gt;&lt;span style=&quot;background-color: initial;&quot;&gt;&amp;nbsp;&lt;/span&gt;&lt;span style=&quot;background-color: initial;&quot;&gt;productImage :&amp;nbsp;&lt;/span&gt;String,&lt;/blockquote&gt;&lt;blockquote style=&quot;margin: 0 0 0 40px; border: none; padding: 0px;&quot;&gt;&amp;nbsp;&lt;span style=&quot;background-color: initial;&quot;&gt;productName :&amp;nbsp;&lt;/span&gt;String&lt;span style=&quot;background-color: initial;&quot;&gt;,&lt;br&gt;&lt;/span&gt;&lt;/blockquote&gt;&lt;blockquote style=&quot;margin: 0 0 0 40px; border: none; padding: 0px;&quot;&gt;&lt;span style=&quot;background-color: initial;&quot;&gt;&amp;nbsp;&lt;/span&gt;&lt;span style=&quot;background-color: initial;&quot;&gt;productDescription :&amp;nbsp;&lt;/span&gt;String&lt;span style=&quot;background-color: initial;&quot;&gt;,&lt;br&gt;&lt;/span&gt;&lt;/blockquote&gt;&lt;blockquote style=&quot;margin: 0 0 0 40px; border: none; padding: 0px;&quot;&gt;&lt;span style=&quot;background-color: initial;&quot;&gt;&amp;nbsp;&lt;/span&gt;&lt;span style=&quot;background-color: initial;&quot;&gt;price :&amp;nbsp;&lt;/span&gt;Integer&lt;span style=&quot;background-color: initial;&quot;&gt;,&lt;br&gt;&lt;/span&gt;&lt;/blockquote&gt;&lt;blockquote style=&quot;margin: 0 0 0 40px; border: none; padding: 0px;&quot;&gt;&lt;span style=&quot;background-color: initial;&quot;&gt;&amp;nbsp;&lt;/span&gt;&lt;span style=&quot;background-color: initial;&quot;&gt;release :&lt;/span&gt;boolean&amp;nbsp;&lt;span style=&quot;background-color: initial;&quot;&gt;) :&amp;nbsp;Integer&lt;/span&gt;&lt;/blockquote&gt;&lt;/blockquote&gt;" style="text;align=left;verticalAlign=middle;resizable=0;points=[];autosize=1;strokeColor=none;fillColor=none;spacing=2;spacingTop=0;html=1;" vertex="1" parent="b99Ah2XA37YD6QNn5OcU-11">
          <mxGeometry y="50" width="490" height="160" as="geometry" />
        </mxCell>
        <mxCell id="b99Ah2XA37YD6QNn5OcU-14" value="&lt;&lt; interface &gt;&gt;&#xa;UserService" style="swimlane;fontStyle=1;align=center;verticalAlign=middle;childLayout=stackLayout;horizontal=1;startSize=40;horizontalStack=0;resizeParent=1;resizeLast=0;collapsible=1;marginBottom=0;rounded=0;shadow=0;strokeWidth=1;" vertex="1" parent="1">
          <mxGeometry x="880" y="20" width="330" height="170" as="geometry">
            <mxRectangle x="560" y="20" width="170" height="26" as="alternateBounds" />
          </mxGeometry>
        </mxCell>
        <mxCell id="b99Ah2XA37YD6QNn5OcU-15" value="" style="line;html=1;strokeWidth=1;align=left;verticalAlign=middle;spacingTop=-1;spacingLeft=3;spacingRight=3;rotatable=0;labelPosition=right;points=[];portConstraint=eastwest;" vertex="1" parent="b99Ah2XA37YD6QNn5OcU-14">
          <mxGeometry y="40" width="330" height="20" as="geometry" />
        </mxCell>
        <mxCell id="b99Ah2XA37YD6QNn5OcU-16" value="&lt;p style=&quot;margin-top: 0pt; margin-bottom: 0pt; margin-left: 0in; direction: ltr; unicode-bidi: embed; word-break: normal;&quot;&gt;&lt;span style=&quot;font-size: 9pt; font-family: Calibri;&quot;&gt;+&lt;/span&gt;&lt;span style=&quot;font-size: 9pt; font-family: Calibri;&quot;&gt;&amp;nbsp;&lt;/span&gt;&lt;font face=&quot;Calibri&quot;&gt;postUserkaritouroku&lt;span style=&quot;font-size: 9pt;&quot;&gt;&amp;nbsp;( &lt;/span&gt;user&lt;span style=&quot;font-size: 9pt;&quot;&gt;&amp;nbsp;:&amp;nbsp;&lt;/span&gt;KariUser&lt;span style=&quot;font-size: 9pt;&quot;&gt;&amp;nbsp;&lt;/span&gt;&lt;/font&gt;&lt;span style=&quot;font-size: 9pt; font-family: Calibri;&quot;&gt;) &lt;/span&gt;&lt;span style=&quot;font-size: 9pt; font-family: Calibri;&quot;&gt;:&amp;nbsp;&lt;/span&gt;&lt;font face=&quot;Calibri&quot;&gt;Integer&lt;/font&gt;&lt;/p&gt;&lt;font face=&quot;Calibri&quot;&gt;+ getKariUser ( userId : Integer ) : KariUser&lt;br&gt;+ postEndUser ( endUser :&amp;nbsp;&lt;/font&gt;&lt;span style=&quot;font-family: Calibri;&quot;&gt;EndUser&lt;/span&gt;&lt;font face=&quot;Calibri&quot;&gt;, userId :&lt;/font&gt;&lt;span style=&quot;font-family: Calibri;&quot;&gt;Integer&amp;nbsp;&lt;/span&gt;&lt;font face=&quot;Calibri&quot;&gt;) : void&lt;br&gt;+ getUsersOne ( userEmail :&lt;/font&gt;&lt;span style=&quot;font-family: Calibri;&quot;&gt;String&amp;nbsp;&lt;/span&gt;&lt;font face=&quot;Calibri&quot;&gt;) : Users&lt;br&gt;+ updateUser ( endUser :&lt;/font&gt;&lt;span style=&quot;font-family: Calibri;&quot;&gt;EndUser&amp;nbsp;&lt;/span&gt;&lt;font face=&quot;Calibri&quot;&gt;) : void&lt;br&gt;+ updateUserEmail ( usersId :&amp;nbsp;&lt;/font&gt;&lt;span style=&quot;font-family: Calibri;&quot;&gt;Integer&lt;/span&gt;&lt;font face=&quot;Calibri&quot;&gt;, userEmail :&amp;nbsp;&lt;/font&gt;&lt;span style=&quot;font-family: Calibri;&quot;&gt;String&amp;nbsp;&lt;/span&gt;&lt;font face=&quot;Calibri&quot;&gt;) : void&lt;br&gt;+ getUsersOneByUserId ( usersId :&amp;nbsp;&lt;/font&gt;&lt;span style=&quot;font-family: Calibri;&quot;&gt;Integer&amp;nbsp;&lt;/span&gt;&lt;font face=&quot;Calibri&quot;&gt;) : Users&lt;br&gt;&lt;/font&gt;" style="text;align=left;verticalAlign=middle;resizable=0;points=[];autosize=1;strokeColor=none;fillColor=none;spacing=2;html=1;spacingTop=-1;" vertex="1" parent="b99Ah2XA37YD6QNn5OcU-14">
          <mxGeometry y="60" width="330" height="110" as="geometry" />
        </mxCell>
        <mxCell id="b99Ah2XA37YD6QNn5OcU-17" style="edgeStyle=orthogonalEdgeStyle;rounded=0;orthogonalLoop=1;jettySize=auto;html=1;exitX=0.5;exitY=0;exitDx=0;exitDy=0;entryX=0.5;entryY=1;entryDx=0;entryDy=0;endArrow=none;endFill=0;" edge="1" parent="1" source="b99Ah2XA37YD6QNn5OcU-18" target="b99Ah2XA37YD6QNn5OcU-22">
          <mxGeometry relative="1" as="geometry" />
        </mxCell>
        <mxCell id="b99Ah2XA37YD6QNn5OcU-18" value="&lt;&lt; interface &gt;&gt;&#xa;KariUserRepository" style="swimlane;fontStyle=1;align=center;verticalAlign=middle;childLayout=stackLayout;horizontal=1;startSize=40;horizontalStack=0;resizeParent=1;resizeLast=0;collapsible=1;marginBottom=0;rounded=0;shadow=0;strokeWidth=1;" vertex="1" parent="1">
          <mxGeometry x="880" y="580" width="330" height="80" as="geometry">
            <mxRectangle x="560" y="480" width="170" height="26" as="alternateBounds" />
          </mxGeometry>
        </mxCell>
        <mxCell id="b99Ah2XA37YD6QNn5OcU-19" value="" style="line;html=1;strokeWidth=1;align=left;verticalAlign=middle;spacingTop=-1;spacingLeft=3;spacingRight=3;rotatable=0;labelPosition=right;points=[];portConstraint=eastwest;" vertex="1" parent="b99Ah2XA37YD6QNn5OcU-18">
          <mxGeometry y="40" width="330" height="20" as="geometry" />
        </mxCell>
        <mxCell id="b99Ah2XA37YD6QNn5OcU-20" value="&lt;p style=&quot;margin-top: 0pt; margin-bottom: 0pt; margin-left: 0in; direction: ltr; unicode-bidi: embed; word-break: normal;&quot;&gt;&lt;/p&gt;&lt;font face=&quot;Calibri&quot;&gt;+ findByUserEmailLike ( email :&amp;nbsp;&lt;/font&gt;&lt;span style=&quot;font-family: Calibri;&quot;&gt;String&amp;nbsp;&lt;/span&gt;&lt;font face=&quot;Calibri&quot;&gt;) : KariUser&lt;br&gt;&lt;/font&gt;" style="text;align=left;verticalAlign=middle;resizable=0;points=[];autosize=1;strokeColor=none;fillColor=none;spacing=2;html=1;spacingTop=-1;" vertex="1" parent="b99Ah2XA37YD6QNn5OcU-18">
          <mxGeometry y="60" width="330" height="20" as="geometry" />
        </mxCell>
        <mxCell id="b99Ah2XA37YD6QNn5OcU-21" style="edgeStyle=orthogonalEdgeStyle;rounded=0;orthogonalLoop=1;jettySize=auto;html=1;exitX=0.5;exitY=0;exitDx=0;exitDy=0;entryX=0.5;entryY=1;entryDx=0;entryDy=0;entryPerimeter=0;dashed=1;" edge="1" parent="1" source="b99Ah2XA37YD6QNn5OcU-22" target="b99Ah2XA37YD6QNn5OcU-16">
          <mxGeometry relative="1" as="geometry" />
        </mxCell>
        <mxCell id="b99Ah2XA37YD6QNn5OcU-22" value="&lt;&lt; Service &gt;&gt;&#xa;UserServiceImpl" style="swimlane;fontStyle=1;align=center;verticalAlign=middle;childLayout=stackLayout;horizontal=1;startSize=40;horizontalStack=0;resizeParent=1;resizeLast=0;collapsible=1;marginBottom=0;rounded=0;shadow=0;strokeWidth=1;" vertex="1" parent="1">
          <mxGeometry x="880" y="250" width="330" height="235" as="geometry">
            <mxRectangle x="880" y="250" width="170" height="26" as="alternateBounds" />
          </mxGeometry>
        </mxCell>
        <mxCell id="b99Ah2XA37YD6QNn5OcU-23" value="- kariUserRepository : KariUserRepository&lt;br&gt;-&amp;nbsp;userRepository : UserRepository&lt;br&gt;-&amp;nbsp;usersRepository : UsersRepository&lt;br&gt;-&amp;nbsp;encoder : PasswordEncoder" style="text;align=left;verticalAlign=middle;resizable=0;points=[];autosize=1;strokeColor=none;fillColor=none;spacing=2;spacingTop=1;spacingBottom=0;html=1;" vertex="1" parent="b99Ah2XA37YD6QNn5OcU-22">
          <mxGeometry y="40" width="330" height="70" as="geometry" />
        </mxCell>
        <mxCell id="b99Ah2XA37YD6QNn5OcU-24" value="" style="line;html=1;strokeWidth=1;align=left;verticalAlign=middle;spacingTop=-1;spacingLeft=3;spacingRight=3;rotatable=0;labelPosition=right;points=[];portConstraint=eastwest;" vertex="1" parent="b99Ah2XA37YD6QNn5OcU-22">
          <mxGeometry y="110" width="330" height="10" as="geometry" />
        </mxCell>
        <mxCell id="b99Ah2XA37YD6QNn5OcU-25" value="&lt;p style=&quot;margin-top: 0pt; margin-bottom: 0pt; margin-left: 0in; direction: ltr; unicode-bidi: embed; word-break: normal;&quot;&gt;&lt;span style=&quot;font-size: 9pt; font-family: Calibri;&quot;&gt;+&lt;/span&gt;&lt;span style=&quot;font-size: 9pt; font-family: Calibri;&quot;&gt;&amp;nbsp;&lt;/span&gt;&lt;font face=&quot;Calibri&quot;&gt;postUserkaritouroku&lt;span style=&quot;font-size: 9pt;&quot;&gt;&amp;nbsp;( &lt;/span&gt;user&lt;span style=&quot;font-size: 9pt;&quot;&gt;&amp;nbsp;:&amp;nbsp;&lt;/span&gt;KariUser&lt;span style=&quot;font-size: 9pt;&quot;&gt;&amp;nbsp;&lt;/span&gt;&lt;/font&gt;&lt;span style=&quot;font-size: 9pt; font-family: Calibri;&quot;&gt;) &lt;/span&gt;&lt;span style=&quot;font-size: 9pt; font-family: Calibri;&quot;&gt;:&amp;nbsp;&lt;/span&gt;&lt;font face=&quot;Calibri&quot;&gt;Integer&lt;/font&gt;&lt;/p&gt;&lt;font face=&quot;Calibri&quot;&gt;+ getKariUser ( userId : Integer ) : KariUser&lt;br&gt;+ postEndUser ( endUser :&amp;nbsp;&lt;/font&gt;&lt;span style=&quot;font-family: Calibri;&quot;&gt;EndUser&lt;/span&gt;&lt;font face=&quot;Calibri&quot;&gt;, userId :&lt;/font&gt;&lt;span style=&quot;font-family: Calibri;&quot;&gt;Integer&amp;nbsp;&lt;/span&gt;&lt;font face=&quot;Calibri&quot;&gt;) : void&lt;br&gt;+ getUsersOne ( userEmail :&lt;/font&gt;&lt;span style=&quot;font-family: Calibri;&quot;&gt;String&amp;nbsp;&lt;/span&gt;&lt;font face=&quot;Calibri&quot;&gt;) : Users&lt;br&gt;+ updateUser ( endUser :&lt;/font&gt;&lt;span style=&quot;font-family: Calibri;&quot;&gt;EndUser&amp;nbsp;&lt;/span&gt;&lt;font face=&quot;Calibri&quot;&gt;) : void&lt;br&gt;+ updateUserEmail ( usersId :&amp;nbsp;&lt;/font&gt;&lt;span style=&quot;font-family: Calibri;&quot;&gt;Integer&lt;/span&gt;&lt;font face=&quot;Calibri&quot;&gt;, userEmail :&amp;nbsp;&lt;/font&gt;&lt;span style=&quot;font-family: Calibri;&quot;&gt;String&amp;nbsp;&lt;/span&gt;&lt;font face=&quot;Calibri&quot;&gt;) : void&lt;br&gt;+ getUsersOneByUserId ( usersId :&amp;nbsp;&lt;/font&gt;&lt;span style=&quot;font-family: Calibri;&quot;&gt;Integer&amp;nbsp;&lt;/span&gt;&lt;font face=&quot;Calibri&quot;&gt;) : Users&lt;br&gt;&lt;/font&gt;" style="text;align=left;verticalAlign=middle;resizable=0;points=[];autosize=1;strokeColor=none;fillColor=none;spacing=2;html=1;spacingTop=-1;" vertex="1" parent="b99Ah2XA37YD6QNn5OcU-22">
          <mxGeometry y="120" width="330" height="110" as="geometry" />
        </mxCell>
        <mxCell id="b99Ah2XA37YD6QNn5OcU-26" style="edgeStyle=orthogonalEdgeStyle;rounded=0;orthogonalLoop=1;jettySize=auto;html=1;exitX=0.5;exitY=0;exitDx=0;exitDy=0;entryX=0.5;entryY=1;entryDx=0;entryDy=0;endArrow=none;endFill=0;" edge="1" parent="1" source="b99Ah2XA37YD6QNn5OcU-28" target="b99Ah2XA37YD6QNn5OcU-56">
          <mxGeometry relative="1" as="geometry" />
        </mxCell>
        <mxCell id="b99Ah2XA37YD6QNn5OcU-27" style="edgeStyle=orthogonalEdgeStyle;rounded=0;orthogonalLoop=1;jettySize=auto;html=1;exitX=1;exitY=0.25;exitDx=0;exitDy=0;entryX=0;entryY=0.128;entryDx=0;entryDy=0;entryPerimeter=0;endArrow=none;endFill=0;" edge="1" parent="1" source="b99Ah2XA37YD6QNn5OcU-28" target="b99Ah2XA37YD6QNn5OcU-22">
          <mxGeometry relative="1" as="geometry" />
        </mxCell>
        <mxCell id="b99Ah2XA37YD6QNn5OcU-28" value="&lt;&lt; interface &gt;&gt;&#xa;UserRepository" style="swimlane;fontStyle=1;align=center;verticalAlign=middle;childLayout=stackLayout;horizontal=1;startSize=40;horizontalStack=0;resizeParent=1;resizeLast=0;collapsible=1;marginBottom=0;rounded=0;shadow=0;strokeWidth=1;" vertex="1" parent="1">
          <mxGeometry x="495" y="330" width="330" height="140" as="geometry">
            <mxRectangle x="560" y="590" width="170" height="26" as="alternateBounds" />
          </mxGeometry>
        </mxCell>
        <mxCell id="b99Ah2XA37YD6QNn5OcU-29" value="" style="line;html=1;strokeWidth=1;align=left;verticalAlign=middle;spacingTop=-1;spacingLeft=3;spacingRight=3;rotatable=0;labelPosition=right;points=[];portConstraint=eastwest;" vertex="1" parent="b99Ah2XA37YD6QNn5OcU-28">
          <mxGeometry y="40" width="330" height="20" as="geometry" />
        </mxCell>
        <mxCell id="b99Ah2XA37YD6QNn5OcU-30" value="&lt;p style=&quot;margin-top: 0pt; margin-bottom: 0pt; margin-left: 0in; direction: ltr; unicode-bidi: embed; word-break: normal;&quot;&gt;&lt;/p&gt;&lt;font face=&quot;Calibri&quot;&gt;+ findByUsersId ( usersId :&lt;/font&gt;&lt;span style=&quot;font-family: Calibri;&quot;&gt;Integer&amp;nbsp;&lt;/span&gt;&lt;font face=&quot;Calibri&quot;&gt;) :&amp;nbsp;&lt;/font&gt;&lt;span style=&quot;font-family: Calibri;&quot;&gt;EndUserSignup&lt;br&gt;&lt;/span&gt;&lt;font face=&quot;Calibri&quot;&gt;+&amp;nbsp;&lt;span style=&quot;background-color: initial;&quot;&gt;updateEndUser ( userId :&amp;nbsp;&lt;/span&gt;&lt;/font&gt;&lt;span style=&quot;font-family: Calibri;&quot;&gt;Integer&lt;/span&gt;&lt;font face=&quot;Calibri&quot;&gt;&lt;span style=&quot;background-color: initial;&quot;&gt;,&lt;br&gt;&lt;/span&gt;&lt;/font&gt;&lt;blockquote style=&quot;margin: 0 0 0 40px; border: none; padding: 0px;&quot;&gt;&lt;blockquote style=&quot;margin: 0 0 0 40px; border: none; padding: 0px;&quot;&gt;&lt;span style=&quot;font-family: Calibri; background-color: initial;&quot;&gt;&amp;nbsp;birthday :&lt;/span&gt;&lt;span style=&quot;font-family: Calibri;&quot;&gt;Date&lt;/span&gt;&lt;span style=&quot;font-family: Calibri; background-color: initial;&quot;&gt;,&lt;br&gt;&lt;/span&gt;&lt;/blockquote&gt;&lt;blockquote style=&quot;margin: 0 0 0 40px; border: none; padding: 0px;&quot;&gt;&lt;span style=&quot;font-family: Calibri; background-color: initial;&quot;&gt;&amp;nbsp;&lt;/span&gt;&lt;span style=&quot;font-family: Calibri; background-color: initial;&quot;&gt;address :&lt;/span&gt;&lt;span style=&quot;font-family: Calibri;&quot;&gt;String&lt;/span&gt;&lt;span style=&quot;font-family: Calibri; background-color: initial;&quot;&gt;,&lt;br&gt;&lt;/span&gt;&lt;/blockquote&gt;&lt;blockquote style=&quot;margin: 0 0 0 40px; border: none; padding: 0px;&quot;&gt;&lt;span style=&quot;font-family: Calibri; background-color: initial;&quot;&gt;&amp;nbsp;&lt;/span&gt;&lt;span style=&quot;font-family: Calibri; background-color: initial;&quot;&gt;phoneNumber :&lt;/span&gt;&lt;span style=&quot;font-family: Calibri;&quot;&gt;Integer&amp;nbsp;&lt;/span&gt;&lt;span style=&quot;font-family: Calibri; background-color: initial;&quot;&gt;) :&amp;nbsp; Integer&lt;/span&gt;&lt;/blockquote&gt;&lt;/blockquote&gt;" style="text;align=left;verticalAlign=middle;resizable=0;points=[];autosize=1;strokeColor=none;fillColor=none;spacing=2;html=1;spacingTop=-1;" vertex="1" parent="b99Ah2XA37YD6QNn5OcU-28">
          <mxGeometry y="60" width="330" height="80" as="geometry" />
        </mxCell>
        <mxCell id="b99Ah2XA37YD6QNn5OcU-31" style="edgeStyle=orthogonalEdgeStyle;rounded=0;orthogonalLoop=1;jettySize=auto;html=1;exitX=0.5;exitY=0;exitDx=0;exitDy=0;entryX=0.5;entryY=1;entryDx=0;entryDy=0;endArrow=none;endFill=0;" edge="1" parent="1" source="b99Ah2XA37YD6QNn5OcU-33" target="b99Ah2XA37YD6QNn5OcU-22">
          <mxGeometry relative="1" as="geometry">
            <Array as="points">
              <mxPoint x="1045" y="710" />
              <mxPoint x="830" y="710" />
              <mxPoint x="830" y="530" />
              <mxPoint x="1045" y="530" />
            </Array>
          </mxGeometry>
        </mxCell>
        <mxCell id="b99Ah2XA37YD6QNn5OcU-32" style="edgeStyle=orthogonalEdgeStyle;rounded=0;orthogonalLoop=1;jettySize=auto;html=1;exitX=0.5;exitY=0;exitDx=0;exitDy=0;entryX=0.004;entryY=0.131;entryDx=0;entryDy=0;entryPerimeter=0;endArrow=none;endFill=0;" edge="1" parent="1" source="b99Ah2XA37YD6QNn5OcU-33" target="b99Ah2XA37YD6QNn5OcU-40">
          <mxGeometry relative="1" as="geometry">
            <Array as="points">
              <mxPoint x="1045" y="710" />
              <mxPoint x="1250" y="710" />
              <mxPoint x="1250" y="277" />
            </Array>
          </mxGeometry>
        </mxCell>
        <mxCell id="b99Ah2XA37YD6QNn5OcU-33" value="&lt;&lt; interface &gt;&gt;&#xa;UsersRepository" style="swimlane;fontStyle=1;align=center;verticalAlign=middle;childLayout=stackLayout;horizontal=1;startSize=40;horizontalStack=0;resizeParent=1;resizeLast=0;collapsible=1;marginBottom=0;rounded=0;shadow=0;strokeWidth=1;" vertex="1" parent="1">
          <mxGeometry x="880" y="745" width="330" height="210" as="geometry">
            <mxRectangle x="560" y="760" width="170" height="26" as="alternateBounds" />
          </mxGeometry>
        </mxCell>
        <mxCell id="b99Ah2XA37YD6QNn5OcU-34" value="" style="line;html=1;strokeWidth=1;align=left;verticalAlign=middle;spacingTop=-1;spacingLeft=3;spacingRight=3;rotatable=0;labelPosition=right;points=[];portConstraint=eastwest;" vertex="1" parent="b99Ah2XA37YD6QNn5OcU-33">
          <mxGeometry y="40" width="330" height="20" as="geometry" />
        </mxCell>
        <mxCell id="b99Ah2XA37YD6QNn5OcU-35" value="&lt;p style=&quot;margin-top: 0pt; margin-bottom: 0pt; margin-left: 0in; direction: ltr; unicode-bidi: embed; word-break: normal;&quot;&gt;&lt;/p&gt;&lt;font face=&quot;Calibri&quot;&gt;+ findByUserEmailLike ( email :&lt;/font&gt;&lt;span style=&quot;font-family: Calibri;&quot;&gt;String&amp;nbsp;&lt;/span&gt;&lt;font face=&quot;Calibri&quot;&gt;) :&amp;nbsp;&lt;/font&gt;&lt;span style=&quot;font-family: Calibri;&quot;&gt;Users&lt;br&gt;+&amp;nbsp;&lt;/span&gt;&lt;font face=&quot;Calibri&quot;&gt;&lt;span style=&quot;background-color: initial;&quot;&gt;updateAdminUser ( userId :&lt;/span&gt;&lt;/font&gt;&lt;span style=&quot;font-family: Calibri;&quot;&gt;Integer&lt;/span&gt;&lt;font face=&quot;Calibri&quot;&gt;&lt;span style=&quot;background-color: initial;&quot;&gt;,&lt;/span&gt;&lt;/font&gt;&lt;blockquote style=&quot;margin: 0 0 0 40px; border: none; padding: 0px;&quot;&gt;&lt;blockquote style=&quot;margin: 0 0 0 40px; border: none; padding: 0px;&quot;&gt;&lt;font face=&quot;Calibri&quot;&gt;&lt;div&gt;password : String,&lt;/div&gt;&lt;/font&gt;&lt;/blockquote&gt;&lt;blockquote style=&quot;margin: 0 0 0 40px; border: none; padding: 0px;&quot;&gt;&lt;font face=&quot;Calibri&quot;&gt;&lt;div&gt;userName : String) : Integer&lt;/div&gt;&lt;/font&gt;&lt;/blockquote&gt;&lt;/blockquote&gt;&lt;font face=&quot;Calibri&quot;&gt;&lt;div&gt;+&amp;nbsp;&lt;span style=&quot;background-color: initial;&quot;&gt;updateEndUser ( userId : Integer,&lt;/span&gt;&lt;/div&gt;&lt;/font&gt;&lt;blockquote style=&quot;margin: 0 0 0 40px; border: none; padding: 0px;&quot;&gt;&lt;blockquote style=&quot;margin: 0 0 0 40px; border: none; padding: 0px;&quot;&gt;&lt;div&gt;&lt;font face=&quot;Calibri&quot;&gt;password : String,&lt;/font&gt;&lt;/div&gt;&lt;/blockquote&gt;&lt;blockquote style=&quot;margin: 0 0 0 40px; border: none; padding: 0px;&quot;&gt;&lt;div&gt;&lt;font face=&quot;Calibri&quot;&gt;userName : String,&lt;/font&gt;&lt;/div&gt;&lt;/blockquote&gt;&lt;blockquote style=&quot;margin: 0 0 0 40px; border: none; padding: 0px;&quot;&gt;&lt;div&gt;&lt;font face=&quot;Calibri&quot;&gt;userEmail : String ) : Integer&lt;/font&gt;&lt;/div&gt;&lt;/blockquote&gt;&lt;/blockquote&gt;&lt;div&gt;&lt;font face=&quot;Calibri&quot;&gt;+&amp;nbsp;&lt;/font&gt;&lt;span style=&quot;background-color: initial;&quot;&gt;&lt;font face=&quot;Calibri&quot;&gt;updateEndUserEmail ( userId : Integer,&lt;/font&gt;&lt;/span&gt;&lt;/div&gt;&lt;blockquote style=&quot;margin: 0 0 0 40px; border: none; padding: 0px;&quot;&gt;&lt;blockquote style=&quot;margin: 0 0 0 40px; border: none; padding: 0px;&quot;&gt;&lt;div&gt;&lt;font face=&quot;Calibri&quot;&gt;userEmail : String ) : Integer&lt;/font&gt;&lt;/div&gt;&lt;/blockquote&gt;&lt;/blockquote&gt;" style="text;align=left;verticalAlign=middle;resizable=0;points=[];autosize=1;strokeColor=none;fillColor=none;spacing=2;html=1;spacingTop=-1;" vertex="1" parent="b99Ah2XA37YD6QNn5OcU-33">
          <mxGeometry y="60" width="330" height="150" as="geometry" />
        </mxCell>
        <mxCell id="b99Ah2XA37YD6QNn5OcU-36" value="&lt;&lt; interface &gt;&gt;&#xa;AdminUserService" style="swimlane;fontStyle=1;align=center;verticalAlign=middle;childLayout=stackLayout;horizontal=1;startSize=40;horizontalStack=0;resizeParent=1;resizeLast=0;collapsible=1;marginBottom=0;rounded=0;shadow=0;strokeWidth=1;" vertex="1" parent="1">
          <mxGeometry x="1280" y="20" width="260" height="170" as="geometry">
            <mxRectangle x="960" y="20" width="170" height="26" as="alternateBounds" />
          </mxGeometry>
        </mxCell>
        <mxCell id="b99Ah2XA37YD6QNn5OcU-37" value="" style="line;html=1;strokeWidth=1;align=left;verticalAlign=middle;spacingTop=-1;spacingLeft=3;spacingRight=3;rotatable=0;labelPosition=right;points=[];portConstraint=eastwest;" vertex="1" parent="b99Ah2XA37YD6QNn5OcU-36">
          <mxGeometry y="40" width="260" height="20" as="geometry" />
        </mxCell>
        <mxCell id="b99Ah2XA37YD6QNn5OcU-38" value="&lt;p style=&quot;margin-top: 0pt; margin-bottom: 0pt; margin-left: 0in; direction: ltr; unicode-bidi: embed; word-break: normal;&quot;&gt;&lt;/p&gt;&lt;font face=&quot;Calibri&quot;&gt;+ addAdminUser ( user :&amp;nbsp;&lt;/font&gt;&lt;span style=&quot;font-family: Calibri;&quot;&gt;Users&amp;nbsp;&lt;/span&gt;&lt;font face=&quot;Calibri&quot;&gt;) :&amp;nbsp;&lt;/font&gt;&lt;span style=&quot;font-family: Calibri;&quot;&gt;void&lt;br&gt;&lt;/span&gt;&lt;font face=&quot;Calibri&quot;&gt;+ getAdminUser() :&amp;nbsp;&lt;/font&gt;&lt;span style=&quot;font-family: Calibri;&quot;&gt;List&amp;lt;Users&amp;gt;&lt;br&gt;&lt;/span&gt;&lt;font face=&quot;Calibri&quot;&gt;+ getAdminUserOne ( userId :&amp;nbsp;&lt;/font&gt;&lt;span style=&quot;font-family: Calibri;&quot;&gt;Integer&amp;nbsp;&lt;/span&gt;&lt;font face=&quot;Calibri&quot;&gt;) :&amp;nbsp;&lt;/font&gt;&lt;span style=&quot;font-family: Calibri;&quot;&gt;Users&lt;br&gt;&lt;/span&gt;&lt;font face=&quot;Calibri&quot;&gt;+ updateAdminUserOne ( userId :&amp;nbsp;&lt;/font&gt;&lt;span style=&quot;font-family: Calibri;&quot;&gt;Integer&lt;/span&gt;&lt;font face=&quot;Calibri&quot;&gt;,&lt;br&gt;&lt;/font&gt;&lt;blockquote style=&quot;margin: 0 0 0 40px; border: none; padding: 0px;&quot;&gt;&lt;blockquote style=&quot;margin: 0 0 0 40px; border: none; padding: 0px;&quot;&gt;&lt;blockquote style=&quot;margin: 0 0 0 40px; border: none; padding: 0px;&quot;&gt;&lt;font face=&quot;Calibri&quot;&gt;&amp;nbsp;password :&amp;nbsp;&lt;/font&gt;&lt;span style=&quot;font-family: Calibri;&quot;&gt;String&lt;/span&gt;&lt;font face=&quot;Calibri&quot;&gt;,&lt;br&gt;&lt;/font&gt;&lt;/blockquote&gt;&lt;/blockquote&gt;&lt;blockquote style=&quot;margin: 0 0 0 40px; border: none; padding: 0px;&quot;&gt;&lt;blockquote style=&quot;margin: 0 0 0 40px; border: none; padding: 0px;&quot;&gt;&lt;font face=&quot;Calibri&quot;&gt;&amp;nbsp;userName :&amp;nbsp;&lt;/font&gt;&lt;span style=&quot;font-family: Calibri;&quot;&gt;String&amp;nbsp;&lt;/span&gt;&lt;font face=&quot;Calibri&quot;&gt;) :&amp;nbsp;&lt;/font&gt;&lt;span style=&quot;font-family: Calibri;&quot;&gt;void&lt;br&gt;&lt;/span&gt;&lt;/blockquote&gt;&lt;/blockquote&gt;&lt;/blockquote&gt;&lt;font face=&quot;Calibri&quot;&gt;+ deleteAdminUserOne ( userId :&amp;nbsp;&lt;/font&gt;&lt;span style=&quot;font-family: Calibri;&quot;&gt;Integer&amp;nbsp;&lt;/span&gt;&lt;font face=&quot;Calibri&quot;&gt;) :&amp;nbsp;&lt;/font&gt;&lt;span style=&quot;font-family: Calibri;&quot;&gt;void&lt;/span&gt;&lt;font face=&quot;Calibri&quot;&gt;&lt;br&gt;&lt;/font&gt;" style="text;align=left;verticalAlign=middle;resizable=0;points=[];autosize=1;strokeColor=none;fillColor=none;spacing=2;html=1;spacingTop=-1;" vertex="1" parent="b99Ah2XA37YD6QNn5OcU-36">
          <mxGeometry y="60" width="260" height="110" as="geometry" />
        </mxCell>
        <mxCell id="b99Ah2XA37YD6QNn5OcU-39" style="edgeStyle=orthogonalEdgeStyle;rounded=0;orthogonalLoop=1;jettySize=auto;html=1;exitX=0.5;exitY=0;exitDx=0;exitDy=0;entryX=0.5;entryY=1.018;entryDx=0;entryDy=0;entryPerimeter=0;dashed=1;endArrow=classic;endFill=1;" edge="1" parent="1" source="b99Ah2XA37YD6QNn5OcU-40" target="b99Ah2XA37YD6QNn5OcU-38">
          <mxGeometry relative="1" as="geometry" />
        </mxCell>
        <mxCell id="b99Ah2XA37YD6QNn5OcU-40" value="&lt;&lt; Service &gt;&gt;&#xa;AdminUserServiceImpl" style="swimlane;fontStyle=1;align=center;verticalAlign=middle;childLayout=stackLayout;horizontal=1;startSize=40;horizontalStack=0;resizeParent=1;resizeLast=0;collapsible=1;marginBottom=0;rounded=0;shadow=0;strokeWidth=1;" vertex="1" parent="1">
          <mxGeometry x="1280" y="250" width="260" height="210" as="geometry">
            <mxRectangle x="960" y="220" width="170" height="26" as="alternateBounds" />
          </mxGeometry>
        </mxCell>
        <mxCell id="b99Ah2XA37YD6QNn5OcU-41" value="- repository : AdminUserRepository&lt;br&gt;-&amp;nbsp;usersRepository : UsersRepository&lt;br&gt;-&amp;nbsp;encoder : PasswordEncoder" style="text;align=left;verticalAlign=middle;resizable=0;points=[];autosize=1;strokeColor=none;fillColor=none;spacing=2;spacingTop=1;spacingBottom=0;html=1;" vertex="1" parent="b99Ah2XA37YD6QNn5OcU-40">
          <mxGeometry y="40" width="260" height="50" as="geometry" />
        </mxCell>
        <mxCell id="b99Ah2XA37YD6QNn5OcU-42" value="" style="line;html=1;strokeWidth=1;align=left;verticalAlign=middle;spacingTop=-1;spacingLeft=3;spacingRight=3;rotatable=0;labelPosition=right;points=[];portConstraint=eastwest;" vertex="1" parent="b99Ah2XA37YD6QNn5OcU-40">
          <mxGeometry y="90" width="260" height="10" as="geometry" />
        </mxCell>
        <mxCell id="b99Ah2XA37YD6QNn5OcU-43" value="&lt;p style=&quot;margin-top: 0pt; margin-bottom: 0pt; margin-left: 0in; direction: ltr; unicode-bidi: embed; word-break: normal;&quot;&gt;&lt;/p&gt;&lt;font face=&quot;Calibri&quot;&gt;+ addAdminUser ( user :&amp;nbsp;&lt;/font&gt;&lt;span style=&quot;font-family: Calibri;&quot;&gt;Users&amp;nbsp;&lt;/span&gt;&lt;font face=&quot;Calibri&quot;&gt;) :&amp;nbsp;&lt;/font&gt;&lt;span style=&quot;font-family: Calibri;&quot;&gt;void&lt;br&gt;&lt;/span&gt;&lt;font face=&quot;Calibri&quot;&gt;+ getAdminUser() :&amp;nbsp;&lt;/font&gt;&lt;span style=&quot;font-family: Calibri;&quot;&gt;List&amp;lt;Users&amp;gt;&lt;br&gt;&lt;/span&gt;&lt;font face=&quot;Calibri&quot;&gt;+ getAdminUserOne ( userId :&amp;nbsp;&lt;/font&gt;&lt;span style=&quot;font-family: Calibri;&quot;&gt;Integer&amp;nbsp;&lt;/span&gt;&lt;font face=&quot;Calibri&quot;&gt;) :&amp;nbsp;&lt;/font&gt;&lt;span style=&quot;font-family: Calibri;&quot;&gt;Users&lt;br&gt;&lt;/span&gt;&lt;font face=&quot;Calibri&quot;&gt;+ updateAdminUserOne ( userId :&amp;nbsp;&lt;/font&gt;&lt;span style=&quot;font-family: Calibri;&quot;&gt;Integer&lt;/span&gt;&lt;font face=&quot;Calibri&quot;&gt;,&lt;br&gt;&lt;/font&gt;&lt;blockquote style=&quot;margin: 0 0 0 40px; border: none; padding: 0px;&quot;&gt;&lt;blockquote style=&quot;margin: 0 0 0 40px; border: none; padding: 0px;&quot;&gt;&lt;blockquote style=&quot;margin: 0 0 0 40px; border: none; padding: 0px;&quot;&gt;&lt;font face=&quot;Calibri&quot;&gt;&amp;nbsp;password :&amp;nbsp;&lt;/font&gt;&lt;span style=&quot;font-family: Calibri;&quot;&gt;String&lt;/span&gt;&lt;font face=&quot;Calibri&quot;&gt;,&lt;br&gt;&lt;/font&gt;&lt;/blockquote&gt;&lt;/blockquote&gt;&lt;blockquote style=&quot;margin: 0 0 0 40px; border: none; padding: 0px;&quot;&gt;&lt;blockquote style=&quot;margin: 0 0 0 40px; border: none; padding: 0px;&quot;&gt;&lt;font face=&quot;Calibri&quot;&gt;&amp;nbsp;userName :&amp;nbsp;&lt;/font&gt;&lt;span style=&quot;font-family: Calibri;&quot;&gt;String&amp;nbsp;&lt;/span&gt;&lt;font face=&quot;Calibri&quot;&gt;) :&amp;nbsp;&lt;/font&gt;&lt;span style=&quot;font-family: Calibri;&quot;&gt;void&lt;br&gt;&lt;/span&gt;&lt;/blockquote&gt;&lt;/blockquote&gt;&lt;/blockquote&gt;&lt;font face=&quot;Calibri&quot;&gt;+ deleteAdminUserOne ( userId :&amp;nbsp;&lt;/font&gt;&lt;span style=&quot;font-family: Calibri;&quot;&gt;Integer&amp;nbsp;&lt;/span&gt;&lt;font face=&quot;Calibri&quot;&gt;) :&amp;nbsp;&lt;/font&gt;&lt;span style=&quot;font-family: Calibri;&quot;&gt;void&lt;/span&gt;&lt;font face=&quot;Calibri&quot;&gt;&lt;br&gt;&lt;/font&gt;" style="text;align=left;verticalAlign=middle;resizable=0;points=[];autosize=1;strokeColor=none;fillColor=none;spacing=2;html=1;spacingTop=-1;" vertex="1" parent="b99Ah2XA37YD6QNn5OcU-40">
          <mxGeometry y="100" width="260" height="110" as="geometry" />
        </mxCell>
        <mxCell id="b99Ah2XA37YD6QNn5OcU-44" value="&lt;&lt; interface &gt;&gt;&#xa;CategoryService" style="swimlane;fontStyle=1;align=center;verticalAlign=middle;childLayout=stackLayout;horizontal=1;startSize=40;horizontalStack=0;resizeParent=1;resizeLast=0;collapsible=1;marginBottom=0;rounded=0;shadow=0;strokeWidth=1;" vertex="1" parent="1">
          <mxGeometry x="1620" y="20" width="250" height="130" as="geometry">
            <mxRectangle x="1260" y="20" width="170" height="26" as="alternateBounds" />
          </mxGeometry>
        </mxCell>
        <mxCell id="b99Ah2XA37YD6QNn5OcU-45" value="" style="line;html=1;strokeWidth=1;align=left;verticalAlign=middle;spacingTop=-1;spacingLeft=3;spacingRight=3;rotatable=0;labelPosition=right;points=[];portConstraint=eastwest;" vertex="1" parent="b99Ah2XA37YD6QNn5OcU-44">
          <mxGeometry y="40" width="250" height="20" as="geometry" />
        </mxCell>
        <mxCell id="b99Ah2XA37YD6QNn5OcU-46" value="&lt;p style=&quot;margin-top: 0pt; margin-bottom: 0pt; margin-left: 0in; direction: ltr; unicode-bidi: embed; word-break: normal;&quot;&gt;&lt;/p&gt;&lt;font face=&quot;Calibri&quot;&gt;+ getCategories () :&amp;nbsp;&lt;/font&gt;&lt;span style=&quot;font-family: Calibri;&quot;&gt;List&amp;lt;Category&amp;gt;&lt;br&gt;&lt;/span&gt;&lt;font face=&quot;Calibri&quot;&gt;+ registerCategory ( category :&lt;/font&gt;&lt;span style=&quot;font-family: Calibri;&quot;&gt;Category&amp;nbsp;&lt;/span&gt;&lt;font face=&quot;Calibri&quot;&gt;) : void&lt;br&gt;+ getCategoruName ( categoryId :&lt;/font&gt;&lt;span style=&quot;font-family: Calibri;&quot;&gt;Integer&amp;nbsp;&lt;/span&gt;&lt;font face=&quot;Calibri&quot;&gt;) : String&lt;br&gt;+ getCategoryId ( categoryName :&lt;/font&gt;&lt;span style=&quot;font-family: Calibri;&quot;&gt;String&amp;nbsp;&lt;/span&gt;&lt;font face=&quot;Calibri&quot;&gt;) : Integer&lt;br&gt;&lt;/font&gt;" style="text;align=left;verticalAlign=middle;resizable=0;points=[];autosize=1;strokeColor=none;fillColor=none;spacing=2;html=1;spacingTop=-1;" vertex="1" parent="b99Ah2XA37YD6QNn5OcU-44">
          <mxGeometry y="60" width="250" height="70" as="geometry" />
        </mxCell>
        <mxCell id="b99Ah2XA37YD6QNn5OcU-47" style="edgeStyle=orthogonalEdgeStyle;rounded=0;orthogonalLoop=1;jettySize=auto;html=1;exitX=0.5;exitY=0;exitDx=0;exitDy=0;entryX=0.5;entryY=1.043;entryDx=0;entryDy=0;entryPerimeter=0;endArrow=classic;endFill=1;dashed=1;" edge="1" parent="1" source="b99Ah2XA37YD6QNn5OcU-48" target="b99Ah2XA37YD6QNn5OcU-46">
          <mxGeometry relative="1" as="geometry" />
        </mxCell>
        <mxCell id="b99Ah2XA37YD6QNn5OcU-48" value="&lt;&lt; Service &gt;&gt;&#xa;CategoryServiceImpl" style="swimlane;fontStyle=1;align=center;verticalAlign=middle;childLayout=stackLayout;horizontal=1;startSize=40;horizontalStack=0;resizeParent=1;resizeLast=0;collapsible=1;marginBottom=0;rounded=0;shadow=0;strokeWidth=1;" vertex="1" parent="1">
          <mxGeometry x="1620" y="220" width="250" height="140" as="geometry">
            <mxRectangle x="1260" y="190" width="170" height="26" as="alternateBounds" />
          </mxGeometry>
        </mxCell>
        <mxCell id="b99Ah2XA37YD6QNn5OcU-49" value="&lt;p style=&quot;margin-top: 0pt; margin-bottom: 0pt; margin-left: 0in; direction: ltr; unicode-bidi: embed; word-break: normal;&quot;&gt;&lt;/p&gt;&lt;font face=&quot;Calibri&quot;&gt;- repository : CategoryRepository&lt;br&gt;&lt;/font&gt;" style="text;align=left;verticalAlign=middle;resizable=0;points=[];autosize=1;strokeColor=none;fillColor=none;spacing=2;html=1;spacingTop=-1;" vertex="1" parent="b99Ah2XA37YD6QNn5OcU-48">
          <mxGeometry y="40" width="250" height="20" as="geometry" />
        </mxCell>
        <mxCell id="b99Ah2XA37YD6QNn5OcU-50" value="" style="line;html=1;strokeWidth=1;align=left;verticalAlign=middle;spacingTop=-1;spacingLeft=3;spacingRight=3;rotatable=0;labelPosition=right;points=[];portConstraint=eastwest;" vertex="1" parent="b99Ah2XA37YD6QNn5OcU-48">
          <mxGeometry y="60" width="250" height="10" as="geometry" />
        </mxCell>
        <mxCell id="b99Ah2XA37YD6QNn5OcU-51" value="&lt;p style=&quot;margin-top: 0pt; margin-bottom: 0pt; margin-left: 0in; direction: ltr; unicode-bidi: embed; word-break: normal;&quot;&gt;&lt;/p&gt;&lt;font face=&quot;Calibri&quot;&gt;+ getCategories () :&amp;nbsp;&lt;/font&gt;&lt;span style=&quot;font-family: Calibri;&quot;&gt;List&amp;lt;Category&amp;gt;&lt;br&gt;&lt;/span&gt;&lt;font face=&quot;Calibri&quot;&gt;+ registerCategory ( category :&lt;/font&gt;&lt;span style=&quot;font-family: Calibri;&quot;&gt;Category&amp;nbsp;&lt;/span&gt;&lt;font face=&quot;Calibri&quot;&gt;) : void&lt;br&gt;+ getCategoruName ( categoryId :&lt;/font&gt;&lt;span style=&quot;font-family: Calibri;&quot;&gt;Integer&amp;nbsp;&lt;/span&gt;&lt;font face=&quot;Calibri&quot;&gt;) : String&lt;br&gt;+ getCategoryId ( categoryName :&lt;/font&gt;&lt;span style=&quot;font-family: Calibri;&quot;&gt;String&amp;nbsp;&lt;/span&gt;&lt;font face=&quot;Calibri&quot;&gt;) : Integer&lt;br&gt;&lt;/font&gt;" style="text;align=left;verticalAlign=middle;resizable=0;points=[];autosize=1;strokeColor=none;fillColor=none;spacing=2;html=1;spacingTop=-1;" vertex="1" parent="b99Ah2XA37YD6QNn5OcU-48">
          <mxGeometry y="70" width="250" height="70" as="geometry" />
        </mxCell>
        <mxCell id="b99Ah2XA37YD6QNn5OcU-52" value="&lt;&lt; interface &gt;&gt;&#xa;EndUserService" style="swimlane;fontStyle=1;align=center;verticalAlign=middle;childLayout=stackLayout;horizontal=1;startSize=40;horizontalStack=0;resizeParent=1;resizeLast=0;collapsible=1;marginBottom=0;rounded=0;shadow=0;strokeWidth=1;" vertex="1" parent="1">
          <mxGeometry x="510" y="20" width="300" height="90" as="geometry">
            <mxRectangle x="260" y="20" width="170" height="26" as="alternateBounds" />
          </mxGeometry>
        </mxCell>
        <mxCell id="b99Ah2XA37YD6QNn5OcU-53" value="" style="line;html=1;strokeWidth=1;align=left;verticalAlign=middle;spacingTop=-1;spacingLeft=3;spacingRight=3;rotatable=0;labelPosition=right;points=[];portConstraint=eastwest;" vertex="1" parent="b99Ah2XA37YD6QNn5OcU-52">
          <mxGeometry y="40" width="300" height="20" as="geometry" />
        </mxCell>
        <mxCell id="b99Ah2XA37YD6QNn5OcU-54" value="&lt;p style=&quot;margin-top: 0pt; margin-bottom: 0pt; margin-left: 0in; direction: ltr; unicode-bidi: embed; word-break: normal;&quot;&gt;&lt;/p&gt;&lt;font face=&quot;Calibri&quot;&gt;+ getEndUserSignupjoho ( usersId :&lt;/font&gt;&lt;span style=&quot;font-family: Calibri;&quot;&gt;Integer&amp;nbsp;&lt;/span&gt;&lt;font face=&quot;Calibri&quot;&gt;) :&amp;nbsp;&lt;/font&gt;&lt;span style=&quot;font-family: Calibri;&quot;&gt;EndUserSignup&amp;nbsp;&lt;/span&gt;&lt;font face=&quot;Calibri&quot;&gt;&lt;br&gt;&lt;/font&gt;" style="text;align=left;verticalAlign=middle;resizable=0;points=[];autosize=1;strokeColor=none;fillColor=none;spacing=2;html=1;spacingTop=-1;" vertex="1" parent="b99Ah2XA37YD6QNn5OcU-52">
          <mxGeometry y="60" width="300" height="20" as="geometry" />
        </mxCell>
        <mxCell id="b99Ah2XA37YD6QNn5OcU-55" style="edgeStyle=orthogonalEdgeStyle;rounded=0;orthogonalLoop=1;jettySize=auto;html=1;exitX=0.5;exitY=0;exitDx=0;exitDy=0;entryX=0.5;entryY=1;entryDx=0;entryDy=0;endArrow=classic;endFill=1;dashed=1;" edge="1" parent="1" source="b99Ah2XA37YD6QNn5OcU-56" target="b99Ah2XA37YD6QNn5OcU-52">
          <mxGeometry relative="1" as="geometry" />
        </mxCell>
        <mxCell id="b99Ah2XA37YD6QNn5OcU-56" value="&lt;&lt; Service &gt;&gt;&#xa;EndUserServiceImpl" style="swimlane;fontStyle=1;align=center;verticalAlign=middle;childLayout=stackLayout;horizontal=1;startSize=40;horizontalStack=0;resizeParent=1;resizeLast=0;collapsible=1;marginBottom=0;rounded=0;shadow=0;strokeWidth=1;" vertex="1" parent="1">
          <mxGeometry x="510" y="160" width="300" height="100" as="geometry">
            <mxRectangle x="610" y="240" width="170" height="26" as="alternateBounds" />
          </mxGeometry>
        </mxCell>
        <mxCell id="b99Ah2XA37YD6QNn5OcU-57" value="&lt;p style=&quot;margin-top: 0pt; margin-bottom: 0pt; margin-left: 0in; direction: ltr; unicode-bidi: embed; word-break: normal;&quot;&gt;&lt;/p&gt;&lt;font face=&quot;Calibri&quot;&gt;- userRepository&amp;nbsp;: UserRepository&lt;br&gt;&lt;/font&gt;" style="text;align=left;verticalAlign=middle;resizable=0;points=[];autosize=1;strokeColor=none;fillColor=none;spacing=2;html=1;spacingTop=-1;" vertex="1" parent="b99Ah2XA37YD6QNn5OcU-56">
          <mxGeometry y="40" width="300" height="20" as="geometry" />
        </mxCell>
        <mxCell id="b99Ah2XA37YD6QNn5OcU-58" value="" style="line;html=1;strokeWidth=1;align=left;verticalAlign=middle;spacingTop=-1;spacingLeft=3;spacingRight=3;rotatable=0;labelPosition=right;points=[];portConstraint=eastwest;" vertex="1" parent="b99Ah2XA37YD6QNn5OcU-56">
          <mxGeometry y="60" width="300" height="10" as="geometry" />
        </mxCell>
        <mxCell id="b99Ah2XA37YD6QNn5OcU-59" value="&lt;p style=&quot;margin-top: 0pt; margin-bottom: 0pt; margin-left: 0in; direction: ltr; unicode-bidi: embed; word-break: normal;&quot;&gt;&lt;/p&gt;&lt;font face=&quot;Calibri&quot;&gt;+ getEndUserSignupjoho ( usersId :&lt;/font&gt;&lt;span style=&quot;font-family: Calibri;&quot;&gt;Integer&amp;nbsp;&lt;/span&gt;&lt;font face=&quot;Calibri&quot;&gt;) :&amp;nbsp;&lt;/font&gt;&lt;span style=&quot;font-family: Calibri;&quot;&gt;EndUserSignup&amp;nbsp;&lt;/span&gt;&lt;font face=&quot;Calibri&quot;&gt;&lt;br&gt;&lt;/font&gt;" style="text;align=left;verticalAlign=middle;resizable=0;points=[];autosize=1;strokeColor=none;fillColor=none;spacing=2;html=1;spacingTop=-1;" vertex="1" parent="b99Ah2XA37YD6QNn5OcU-56">
          <mxGeometry y="70" width="300" height="20" as="geometry" />
        </mxCell>
        <mxCell id="b99Ah2XA37YD6QNn5OcU-60" value="&lt;&lt; interface &gt;&gt;&#xa;OrderService" style="swimlane;fontStyle=1;align=center;verticalAlign=middle;childLayout=stackLayout;horizontal=1;startSize=40;horizontalStack=0;resizeParent=1;resizeLast=0;collapsible=1;marginBottom=0;rounded=0;shadow=0;strokeWidth=1;" vertex="1" parent="1">
          <mxGeometry x="1950" y="20" width="350" height="170" as="geometry">
            <mxRectangle x="260" y="20" width="170" height="26" as="alternateBounds" />
          </mxGeometry>
        </mxCell>
        <mxCell id="b99Ah2XA37YD6QNn5OcU-61" value="" style="line;html=1;strokeWidth=1;align=left;verticalAlign=middle;spacingTop=-1;spacingLeft=3;spacingRight=3;rotatable=0;labelPosition=right;points=[];portConstraint=eastwest;" vertex="1" parent="b99Ah2XA37YD6QNn5OcU-60">
          <mxGeometry y="40" width="350" height="20" as="geometry" />
        </mxCell>
        <mxCell id="b99Ah2XA37YD6QNn5OcU-62" value="&lt;p style=&quot;margin-top: 0pt; margin-bottom: 0pt; margin-left: 0in; direction: ltr; unicode-bidi: embed; word-break: normal;&quot;&gt;&lt;/p&gt;&lt;font face=&quot;Calibri&quot;&gt;+ postProductOrder ( productOrder :&lt;/font&gt;&lt;span style=&quot;font-family: Calibri;&quot;&gt;ProductOrder&amp;nbsp;&lt;/span&gt;&lt;font face=&quot;Calibri&quot;&gt;) : Integer&lt;br&gt;+ postOrderDetail ( orderDetail :&lt;/font&gt;&lt;span style=&quot;font-family: Calibri;&quot;&gt;OrderDetail&amp;nbsp;&lt;/span&gt;&lt;font face=&quot;Calibri&quot;&gt;) : void&lt;br&gt;+ getProductOrder() :&amp;nbsp;&lt;/font&gt;&lt;span style=&quot;font-family: Calibri;&quot;&gt;List&amp;lt;ProductOrder&amp;gt;&lt;br&gt;&lt;/span&gt;&lt;font face=&quot;Calibri&quot;&gt;+ getProductOrderOneByOrderId ( orderId :&lt;/font&gt;&lt;span style=&quot;font-family: Calibri;&quot;&gt;Integer&amp;nbsp;&lt;/span&gt;&lt;font face=&quot;Calibri&quot;&gt;) :&amp;nbsp;&lt;/font&gt;&lt;span style=&quot;font-family: Calibri;&quot;&gt;ProductOrder&lt;br&gt;&lt;/span&gt;&lt;font face=&quot;Calibri&quot;&gt;+ getOrderDetail() :&amp;nbsp;&lt;/font&gt;&lt;span style=&quot;font-family: Calibri;&quot;&gt;List&amp;lt;OrderDetail&amp;gt;&lt;br&gt;&lt;/span&gt;&lt;font face=&quot;Calibri&quot;&gt;+ getOrderDetailByOrderId ( orderId :&lt;/font&gt;&lt;span style=&quot;font-family: Calibri;&quot;&gt;Integer&amp;nbsp;&lt;/span&gt;&lt;font face=&quot;Calibri&quot;&gt;) :&amp;nbsp;&lt;/font&gt;&lt;span style=&quot;font-family: Calibri;&quot;&gt;List&amp;lt;OrderDetail&amp;gt;&lt;br&gt;&lt;/span&gt;&lt;font face=&quot;Calibri&quot;&gt;+ getProductOrderByUserId ( userId :&lt;/font&gt;&lt;span style=&quot;font-family: Calibri;&quot;&gt;Integer&amp;nbsp;&lt;/span&gt;&lt;font face=&quot;Calibri&quot;&gt;) :&amp;nbsp;&lt;/font&gt;&lt;span style=&quot;font-family: Calibri;&quot;&gt;List&amp;lt;ProductOrder&amp;gt;&lt;/span&gt;&lt;font face=&quot;Calibri&quot;&gt;&lt;br&gt;&lt;/font&gt;" style="text;align=left;verticalAlign=middle;resizable=0;points=[];autosize=1;strokeColor=none;fillColor=none;spacing=2;html=1;spacingTop=-1;" vertex="1" parent="b99Ah2XA37YD6QNn5OcU-60">
          <mxGeometry y="60" width="350" height="110" as="geometry" />
        </mxCell>
        <mxCell id="b99Ah2XA37YD6QNn5OcU-63" style="edgeStyle=orthogonalEdgeStyle;rounded=0;orthogonalLoop=1;jettySize=auto;html=1;exitX=0.5;exitY=0;exitDx=0;exitDy=0;entryX=0.5;entryY=1;entryDx=0;entryDy=0;entryPerimeter=0;dashed=1;endArrow=classic;endFill=1;" edge="1" parent="1" source="b99Ah2XA37YD6QNn5OcU-64" target="b99Ah2XA37YD6QNn5OcU-62">
          <mxGeometry relative="1" as="geometry" />
        </mxCell>
        <mxCell id="b99Ah2XA37YD6QNn5OcU-64" value="&lt;&lt; Service &gt;&gt;&#xa;OrderServiceImpl" style="swimlane;fontStyle=1;align=center;verticalAlign=middle;childLayout=stackLayout;horizontal=1;startSize=40;horizontalStack=0;resizeParent=1;resizeLast=0;collapsible=1;marginBottom=0;rounded=0;shadow=0;strokeWidth=1;" vertex="1" parent="1">
          <mxGeometry x="1950" y="250" width="350" height="200" as="geometry">
            <mxRectangle x="1950" y="250" width="170" height="26" as="alternateBounds" />
          </mxGeometry>
        </mxCell>
        <mxCell id="b99Ah2XA37YD6QNn5OcU-65" value="&lt;p style=&quot;margin-top: 0pt; margin-bottom: 0pt; margin-left: 0in; direction: ltr; unicode-bidi: embed; word-break: normal;&quot;&gt;&lt;/p&gt;&lt;font face=&quot;Calibri&quot;&gt;- productOrderRepository&amp;nbsp;: ProductOrderRepository&lt;br&gt;- orderDetailRepository : OrderDetailRepository&lt;br&gt;&lt;/font&gt;" style="text;align=left;verticalAlign=middle;resizable=0;points=[];autosize=1;strokeColor=none;fillColor=none;spacing=2;html=1;spacingTop=-1;" vertex="1" parent="b99Ah2XA37YD6QNn5OcU-64">
          <mxGeometry y="40" width="350" height="40" as="geometry" />
        </mxCell>
        <mxCell id="b99Ah2XA37YD6QNn5OcU-66" value="" style="line;html=1;strokeWidth=1;align=left;verticalAlign=middle;spacingTop=-1;spacingLeft=3;spacingRight=3;rotatable=0;labelPosition=right;points=[];portConstraint=eastwest;" vertex="1" parent="b99Ah2XA37YD6QNn5OcU-64">
          <mxGeometry y="80" width="350" height="10" as="geometry" />
        </mxCell>
        <mxCell id="b99Ah2XA37YD6QNn5OcU-67" value="&lt;p style=&quot;margin-top: 0pt; margin-bottom: 0pt; margin-left: 0in; direction: ltr; unicode-bidi: embed; word-break: normal;&quot;&gt;&lt;/p&gt;&lt;font face=&quot;Calibri&quot;&gt;+ postProductOrder ( productOrder :&lt;/font&gt;&lt;span style=&quot;font-family: Calibri;&quot;&gt;ProductOrder&amp;nbsp;&lt;/span&gt;&lt;font face=&quot;Calibri&quot;&gt;) : Integer&lt;br&gt;+ postOrderDetail ( orderDetail :&lt;/font&gt;&lt;span style=&quot;font-family: Calibri;&quot;&gt;OrderDetail&amp;nbsp;&lt;/span&gt;&lt;font face=&quot;Calibri&quot;&gt;) : void&lt;br&gt;+ getProductOrder() :&amp;nbsp;&lt;/font&gt;&lt;span style=&quot;font-family: Calibri;&quot;&gt;List&amp;lt;ProductOrder&amp;gt;&lt;br&gt;&lt;/span&gt;&lt;font face=&quot;Calibri&quot;&gt;+ getProductOrderOneByOrderId ( orderId :&lt;/font&gt;&lt;span style=&quot;font-family: Calibri;&quot;&gt;Integer&amp;nbsp;&lt;/span&gt;&lt;font face=&quot;Calibri&quot;&gt;) :&amp;nbsp;&lt;/font&gt;&lt;span style=&quot;font-family: Calibri;&quot;&gt;ProductOrder&lt;br&gt;&lt;/span&gt;&lt;font face=&quot;Calibri&quot;&gt;+ getOrderDetail() :&amp;nbsp;&lt;/font&gt;&lt;span style=&quot;font-family: Calibri;&quot;&gt;List&amp;lt;OrderDetail&amp;gt;&lt;br&gt;&lt;/span&gt;&lt;font face=&quot;Calibri&quot;&gt;+ getOrderDetailByOrderId ( orderId :&lt;/font&gt;&lt;span style=&quot;font-family: Calibri;&quot;&gt;Integer&amp;nbsp;&lt;/span&gt;&lt;font face=&quot;Calibri&quot;&gt;) :&amp;nbsp;&lt;/font&gt;&lt;span style=&quot;font-family: Calibri;&quot;&gt;List&amp;lt;OrderDetail&amp;gt;&lt;br&gt;&lt;/span&gt;&lt;font face=&quot;Calibri&quot;&gt;+ getProductOrderByUserId ( userId :&lt;/font&gt;&lt;span style=&quot;font-family: Calibri;&quot;&gt;Integer&amp;nbsp;&lt;/span&gt;&lt;font face=&quot;Calibri&quot;&gt;) :&amp;nbsp;&lt;/font&gt;&lt;span style=&quot;font-family: Calibri;&quot;&gt;List&amp;lt;ProductOrder&amp;gt;&lt;/span&gt;&lt;font face=&quot;Calibri&quot;&gt;&lt;br&gt;&lt;/font&gt;" style="text;align=left;verticalAlign=middle;resizable=0;points=[];autosize=1;strokeColor=none;fillColor=none;spacing=2;html=1;spacingTop=-1;" vertex="1" parent="b99Ah2XA37YD6QNn5OcU-64">
          <mxGeometry y="90" width="350" height="110" as="geometry" />
        </mxCell>
        <mxCell id="b99Ah2XA37YD6QNn5OcU-68" value="&lt;&lt; interface &gt;&gt;&#xa;ProductCategoryService" style="swimlane;fontStyle=1;align=center;verticalAlign=middle;childLayout=stackLayout;horizontal=1;startSize=40;horizontalStack=0;resizeParent=1;resizeLast=0;collapsible=1;marginBottom=0;rounded=0;shadow=0;strokeWidth=1;" vertex="1" parent="1">
          <mxGeometry x="2350" y="20" width="410" height="130" as="geometry">
            <mxRectangle x="2270" y="20" width="170" height="26" as="alternateBounds" />
          </mxGeometry>
        </mxCell>
        <mxCell id="b99Ah2XA37YD6QNn5OcU-69" value="" style="line;html=1;strokeWidth=1;align=left;verticalAlign=middle;spacingTop=-1;spacingLeft=3;spacingRight=3;rotatable=0;labelPosition=right;points=[];portConstraint=eastwest;" vertex="1" parent="b99Ah2XA37YD6QNn5OcU-68">
          <mxGeometry y="40" width="410" height="20" as="geometry" />
        </mxCell>
        <mxCell id="b99Ah2XA37YD6QNn5OcU-70" value="&lt;p style=&quot;margin-top: 0pt; margin-bottom: 0pt; margin-left: 0in; direction: ltr; unicode-bidi: embed; word-break: normal;&quot;&gt;&lt;/p&gt;&lt;font face=&quot;Calibri&quot;&gt;+ postProductCategory ( productCategory :&lt;/font&gt;&lt;span style=&quot;font-family: Calibri;&quot;&gt;List&amp;lt;ProductCategory&amp;gt;&amp;nbsp;&lt;/span&gt;&lt;font face=&quot;Calibri&quot;&gt;) : void&lt;br&gt;+ getProductCategories ( productId :&lt;/font&gt;&lt;span style=&quot;font-family: Calibri;&quot;&gt;Integer&amp;nbsp;&lt;/span&gt;&lt;font face=&quot;Calibri&quot;&gt;) :&amp;nbsp;&lt;/font&gt;&lt;span style=&quot;font-family: Calibri;&quot;&gt;List&amp;lt;ProductCategory&amp;gt;&lt;br&gt;&lt;/span&gt;&lt;font face=&quot;Calibri&quot;&gt;+ deleteProductCategory ( productId :&lt;/font&gt;&lt;span style=&quot;font-family: Calibri;&quot;&gt;Integer&amp;nbsp;&lt;/span&gt;&lt;font face=&quot;Calibri&quot;&gt;) : void&lt;br&gt;+ getProductCategoriesCategory ( categoryId :&lt;/font&gt;&lt;span style=&quot;font-family: Calibri;&quot;&gt;Integer&amp;nbsp;&lt;/span&gt;&lt;font face=&quot;Calibri&quot;&gt;) :&amp;nbsp;&lt;/font&gt;&lt;span style=&quot;font-family: Calibri;&quot;&gt;List&amp;lt;ProductCategory&amp;gt;&lt;/span&gt;&lt;font face=&quot;Calibri&quot;&gt;&lt;br&gt;&lt;/font&gt;" style="text;align=left;verticalAlign=middle;resizable=0;points=[];autosize=1;strokeColor=none;fillColor=none;spacing=2;html=1;spacingTop=-1;" vertex="1" parent="b99Ah2XA37YD6QNn5OcU-68">
          <mxGeometry y="60" width="410" height="70" as="geometry" />
        </mxCell>
        <mxCell id="b99Ah2XA37YD6QNn5OcU-71" style="edgeStyle=orthogonalEdgeStyle;rounded=0;orthogonalLoop=1;jettySize=auto;html=1;exitX=0.5;exitY=0;exitDx=0;exitDy=0;entryX=0.502;entryY=1.024;entryDx=0;entryDy=0;entryPerimeter=0;dashed=1;endArrow=classic;endFill=1;" edge="1" parent="1" source="b99Ah2XA37YD6QNn5OcU-72" target="b99Ah2XA37YD6QNn5OcU-70">
          <mxGeometry relative="1" as="geometry" />
        </mxCell>
        <mxCell id="b99Ah2XA37YD6QNn5OcU-72" value="&lt;&lt; Service &gt;&gt;&#xa;ProductCategoryServiceImpl" style="swimlane;fontStyle=1;align=center;verticalAlign=middle;childLayout=stackLayout;horizontal=1;startSize=40;horizontalStack=0;resizeParent=1;resizeLast=0;collapsible=1;marginBottom=0;rounded=0;shadow=0;strokeWidth=1;" vertex="1" parent="1">
          <mxGeometry x="2350" y="210" width="410" height="140" as="geometry">
            <mxRectangle x="2270" y="190" width="170" height="26" as="alternateBounds" />
          </mxGeometry>
        </mxCell>
        <mxCell id="b99Ah2XA37YD6QNn5OcU-73" value="&lt;p style=&quot;margin-top: 0pt; margin-bottom: 0pt; margin-left: 0in; direction: ltr; unicode-bidi: embed; word-break: normal;&quot;&gt;&lt;/p&gt;&lt;font face=&quot;Calibri&quot;&gt;- repository&amp;nbsp;: ProductCategoryRepository&lt;br&gt;&lt;/font&gt;" style="text;align=left;verticalAlign=middle;resizable=0;points=[];autosize=1;strokeColor=none;fillColor=none;spacing=2;html=1;spacingTop=-1;" vertex="1" parent="b99Ah2XA37YD6QNn5OcU-72">
          <mxGeometry y="40" width="410" height="20" as="geometry" />
        </mxCell>
        <mxCell id="b99Ah2XA37YD6QNn5OcU-74" value="" style="line;html=1;strokeWidth=1;align=left;verticalAlign=middle;spacingTop=-1;spacingLeft=3;spacingRight=3;rotatable=0;labelPosition=right;points=[];portConstraint=eastwest;" vertex="1" parent="b99Ah2XA37YD6QNn5OcU-72">
          <mxGeometry y="60" width="410" height="10" as="geometry" />
        </mxCell>
        <mxCell id="b99Ah2XA37YD6QNn5OcU-75" value="&lt;p style=&quot;margin-top: 0pt; margin-bottom: 0pt; margin-left: 0in; direction: ltr; unicode-bidi: embed; word-break: normal;&quot;&gt;&lt;/p&gt;&lt;font face=&quot;Calibri&quot;&gt;+ postProductCategory ( productCategory :&lt;/font&gt;&lt;span style=&quot;font-family: Calibri;&quot;&gt;List&amp;lt;ProductCategory&amp;gt;&amp;nbsp;&lt;/span&gt;&lt;font face=&quot;Calibri&quot;&gt;) : void&lt;br&gt;+ getProductCategories ( productId :&lt;/font&gt;&lt;span style=&quot;font-family: Calibri;&quot;&gt;Integer&amp;nbsp;&lt;/span&gt;&lt;font face=&quot;Calibri&quot;&gt;) :&amp;nbsp;&lt;/font&gt;&lt;span style=&quot;font-family: Calibri;&quot;&gt;List&amp;lt;ProductCategory&amp;gt;&lt;br&gt;&lt;/span&gt;&lt;font face=&quot;Calibri&quot;&gt;+ deleteProductCategory ( productId :&lt;/font&gt;&lt;span style=&quot;font-family: Calibri;&quot;&gt;Integer&amp;nbsp;&lt;/span&gt;&lt;font face=&quot;Calibri&quot;&gt;) : void&lt;br&gt;+ getProductCategoriesCategory ( categoryId :&lt;/font&gt;&lt;span style=&quot;font-family: Calibri;&quot;&gt;Integer&amp;nbsp;&lt;/span&gt;&lt;font face=&quot;Calibri&quot;&gt;) :&amp;nbsp;&lt;/font&gt;&lt;span style=&quot;font-family: Calibri;&quot;&gt;List&amp;lt;ProductCategory&amp;gt;&lt;/span&gt;&lt;font face=&quot;Calibri&quot;&gt;&lt;br&gt;&lt;/font&gt;" style="text;align=left;verticalAlign=middle;resizable=0;points=[];autosize=1;strokeColor=none;fillColor=none;spacing=2;html=1;spacingTop=-1;" vertex="1" parent="b99Ah2XA37YD6QNn5OcU-72">
          <mxGeometry y="70" width="410" height="70" as="geometry" />
        </mxCell>
        <mxCell id="b99Ah2XA37YD6QNn5OcU-76" value="&lt;&lt; interface &gt;&gt;&#xa;ProductOptionService" style="swimlane;fontStyle=1;align=center;verticalAlign=middle;childLayout=stackLayout;horizontal=1;startSize=40;horizontalStack=0;resizeParent=1;resizeLast=0;collapsible=1;marginBottom=0;rounded=0;shadow=0;strokeWidth=1;" vertex="1" parent="1">
          <mxGeometry x="2820" y="20" width="420" height="160" as="geometry">
            <mxRectangle x="2710" y="20" width="170" height="26" as="alternateBounds" />
          </mxGeometry>
        </mxCell>
        <mxCell id="b99Ah2XA37YD6QNn5OcU-77" value="" style="line;html=1;strokeWidth=1;align=left;verticalAlign=middle;spacingTop=-1;spacingLeft=3;spacingRight=3;rotatable=0;labelPosition=right;points=[];portConstraint=eastwest;" vertex="1" parent="b99Ah2XA37YD6QNn5OcU-76">
          <mxGeometry y="40" width="420" height="20" as="geometry" />
        </mxCell>
        <mxCell id="b99Ah2XA37YD6QNn5OcU-78" value="&lt;p style=&quot;margin-top: 0pt; margin-bottom: 0pt; margin-left: 0in; direction: ltr; unicode-bidi: embed; word-break: normal;&quot;&gt;&lt;/p&gt;&lt;font face=&quot;Calibri&quot;&gt;+ postMaxQuantityAndColor ( productMaxQuantity :&amp;nbsp;&lt;/font&gt;&lt;span style=&quot;font-family: Calibri;&quot;&gt;ProductMaxQuantity&lt;/span&gt;&lt;font face=&quot;Calibri&quot;&gt;,&lt;br&gt;&lt;span style=&quot;white-space: pre;&quot;&gt; &lt;/span&gt;&lt;span style=&quot;white-space: pre;&quot;&gt; &lt;/span&gt;&lt;span style=&quot;white-space: pre;&quot;&gt; &lt;/span&gt;&lt;span style=&quot;white-space: pre;&quot;&gt; &lt;/span&gt;&lt;span style=&quot;white-space: pre;&quot;&gt; &lt;/span&gt;&lt;span style=&quot;white-space: pre;&quot;&gt; &lt;/span&gt;&amp;nbsp;productOptionColor :&amp;nbsp;&lt;/font&gt;&lt;span style=&quot;font-family: Calibri;&quot;&gt;List&amp;lt;ProductOptionColor&amp;gt;&amp;nbsp;&lt;/span&gt;&lt;font face=&quot;Calibri&quot;&gt;) : void&lt;br&gt;+ updateMaxQuantityAndColor ( productMaxQuantity :&amp;nbsp;&lt;/font&gt;&lt;span style=&quot;font-family: Calibri;&quot;&gt;ProductMaxQuantity&lt;/span&gt;&lt;font face=&quot;Calibri&quot;&gt;,&lt;br&gt;&lt;span style=&quot;white-space: pre;&quot;&gt; &lt;/span&gt;&lt;span style=&quot;white-space: pre;&quot;&gt; &lt;/span&gt;&lt;span style=&quot;white-space: pre;&quot;&gt; &lt;/span&gt;&lt;span style=&quot;white-space: pre;&quot;&gt; &lt;/span&gt;&lt;span style=&quot;white-space: pre;&quot;&gt; &lt;/span&gt;&lt;span style=&quot;white-space: pre;&quot;&gt; &lt;/span&gt;&amp;nbsp;productOptionColor :&amp;nbsp;&lt;/font&gt;&lt;span style=&quot;font-family: Calibri;&quot;&gt;List&amp;lt;ProductOptionColor&amp;gt;&amp;nbsp;&lt;/span&gt;&lt;font face=&quot;Calibri&quot;&gt;) : void&lt;br&gt;+ getProductMaxQuantity ( productId :&amp;nbsp;&lt;/font&gt;&lt;span style=&quot;font-family: Calibri;&quot;&gt;Integer&amp;nbsp;&lt;/span&gt;&lt;font face=&quot;Calibri&quot;&gt;) : Integer&lt;br&gt;+ getProductOptionColor ( productId :&amp;nbsp;&lt;/font&gt;&lt;span style=&quot;font-family: Calibri;&quot;&gt;Integer&amp;nbsp;&lt;/span&gt;&lt;font face=&quot;Calibri&quot;&gt;) :&amp;nbsp;&lt;/font&gt;&lt;span style=&quot;font-family: Calibri;&quot;&gt;List&amp;lt;String&amp;gt;&lt;/span&gt;&lt;font face=&quot;Calibri&quot;&gt;&lt;br&gt;&lt;/font&gt;" style="text;align=left;verticalAlign=middle;resizable=0;points=[];autosize=1;strokeColor=none;fillColor=none;spacing=2;html=1;spacingTop=-1;" vertex="1" parent="b99Ah2XA37YD6QNn5OcU-76">
          <mxGeometry y="60" width="420" height="100" as="geometry" />
        </mxCell>
        <mxCell id="b99Ah2XA37YD6QNn5OcU-79" style="edgeStyle=orthogonalEdgeStyle;rounded=0;orthogonalLoop=1;jettySize=auto;html=1;exitX=0.5;exitY=0;exitDx=0;exitDy=0;entryX=0.5;entryY=1.03;entryDx=0;entryDy=0;entryPerimeter=0;dashed=1;endArrow=classic;endFill=1;" edge="1" parent="1" source="b99Ah2XA37YD6QNn5OcU-80" target="b99Ah2XA37YD6QNn5OcU-78">
          <mxGeometry relative="1" as="geometry" />
        </mxCell>
        <mxCell id="b99Ah2XA37YD6QNn5OcU-80" value="&lt;&lt; Service &gt;&gt;&#xa;ProductOptionServiceImpl" style="swimlane;fontStyle=1;align=center;verticalAlign=middle;childLayout=stackLayout;horizontal=1;startSize=40;horizontalStack=0;resizeParent=1;resizeLast=0;collapsible=1;marginBottom=0;rounded=0;shadow=0;strokeWidth=1;" vertex="1" parent="1">
          <mxGeometry x="2820" y="250" width="420" height="190" as="geometry">
            <mxRectangle x="2820" y="250" width="170" height="26" as="alternateBounds" />
          </mxGeometry>
        </mxCell>
        <mxCell id="b99Ah2XA37YD6QNn5OcU-81" value="&lt;p style=&quot;margin-top: 0pt; margin-bottom: 0pt; margin-left: 0in; direction: ltr; unicode-bidi: embed; word-break: normal;&quot;&gt;-&amp;nbsp;productMaxQuantityRepository :&amp;nbsp;ProductMaxQuantityRepository&lt;/p&gt;&lt;p style=&quot;margin-top: 0pt; margin-bottom: 0pt; margin-left: 0in; direction: ltr; unicode-bidi: embed; word-break: normal;&quot;&gt;-&amp;nbsp;productOptionColorRepository :&amp;nbsp;ProductOptionColorRepository&lt;/p&gt;" style="text;align=left;verticalAlign=middle;resizable=0;points=[];autosize=1;strokeColor=none;fillColor=none;spacing=2;html=1;spacingTop=-1;" vertex="1" parent="b99Ah2XA37YD6QNn5OcU-80">
          <mxGeometry y="40" width="420" height="40" as="geometry" />
        </mxCell>
        <mxCell id="b99Ah2XA37YD6QNn5OcU-82" value="" style="line;html=1;strokeWidth=1;align=left;verticalAlign=middle;spacingTop=-1;spacingLeft=3;spacingRight=3;rotatable=0;labelPosition=right;points=[];portConstraint=eastwest;" vertex="1" parent="b99Ah2XA37YD6QNn5OcU-80">
          <mxGeometry y="80" width="420" height="10" as="geometry" />
        </mxCell>
        <mxCell id="b99Ah2XA37YD6QNn5OcU-83" value="&lt;p style=&quot;margin-top: 0pt; margin-bottom: 0pt; margin-left: 0in; direction: ltr; unicode-bidi: embed; word-break: normal;&quot;&gt;&lt;/p&gt;&lt;font face=&quot;Calibri&quot;&gt;+ postMaxQuantityAndColor ( productMaxQuantity :&amp;nbsp;&lt;/font&gt;&lt;span style=&quot;font-family: Calibri;&quot;&gt;ProductMaxQuantity&lt;/span&gt;&lt;font face=&quot;Calibri&quot;&gt;,&lt;br&gt;&lt;span style=&quot;white-space: pre;&quot;&gt; &lt;/span&gt;&lt;span style=&quot;white-space: pre;&quot;&gt; &lt;/span&gt;&lt;span style=&quot;white-space: pre;&quot;&gt; &lt;/span&gt;&lt;span style=&quot;white-space: pre;&quot;&gt; &lt;/span&gt;&lt;span style=&quot;white-space: pre;&quot;&gt; &lt;/span&gt;&lt;span style=&quot;white-space: pre;&quot;&gt; &lt;/span&gt;&amp;nbsp;productOptionColor :&amp;nbsp;&lt;/font&gt;&lt;span style=&quot;font-family: Calibri;&quot;&gt;List&amp;lt;ProductOptionColor&amp;gt;&amp;nbsp;&lt;/span&gt;&lt;font face=&quot;Calibri&quot;&gt;) : void&lt;br&gt;+ updateMaxQuantityAndColor ( productMaxQuantity :&amp;nbsp;&lt;/font&gt;&lt;span style=&quot;font-family: Calibri;&quot;&gt;ProductMaxQuantity&lt;/span&gt;&lt;font face=&quot;Calibri&quot;&gt;,&lt;br&gt;&lt;span style=&quot;white-space: pre;&quot;&gt; &lt;/span&gt;&lt;span style=&quot;white-space: pre;&quot;&gt; &lt;/span&gt;&lt;span style=&quot;white-space: pre;&quot;&gt; &lt;/span&gt;&lt;span style=&quot;white-space: pre;&quot;&gt; &lt;/span&gt;&lt;span style=&quot;white-space: pre;&quot;&gt; &lt;/span&gt;&lt;span style=&quot;white-space: pre;&quot;&gt; &lt;/span&gt;&amp;nbsp;productOptionColor :&amp;nbsp;&lt;/font&gt;&lt;span style=&quot;font-family: Calibri;&quot;&gt;List&amp;lt;ProductOptionColor&amp;gt;&amp;nbsp;&lt;/span&gt;&lt;font face=&quot;Calibri&quot;&gt;) : void&lt;br&gt;+ getProductMaxQuantity ( productId :&amp;nbsp;&lt;/font&gt;&lt;span style=&quot;font-family: Calibri;&quot;&gt;Integer&amp;nbsp;&lt;/span&gt;&lt;font face=&quot;Calibri&quot;&gt;) : Integer&lt;br&gt;+ getProductOptionColor ( productId :&amp;nbsp;&lt;/font&gt;&lt;span style=&quot;font-family: Calibri;&quot;&gt;Integer&amp;nbsp;&lt;/span&gt;&lt;font face=&quot;Calibri&quot;&gt;) :&amp;nbsp;&lt;/font&gt;&lt;span style=&quot;font-family: Calibri;&quot;&gt;List&amp;lt;String&amp;gt;&lt;/span&gt;&lt;font face=&quot;Calibri&quot;&gt;&lt;br&gt;&lt;/font&gt;" style="text;align=left;verticalAlign=middle;resizable=0;points=[];autosize=1;strokeColor=none;fillColor=none;spacing=2;html=1;spacingTop=-1;" vertex="1" parent="b99Ah2XA37YD6QNn5OcU-80">
          <mxGeometry y="90" width="420" height="100" as="geometry" />
        </mxCell>
        <mxCell id="b99Ah2XA37YD6QNn5OcU-84" style="edgeStyle=orthogonalEdgeStyle;rounded=0;orthogonalLoop=1;jettySize=auto;html=1;exitX=0.5;exitY=0;exitDx=0;exitDy=0;entryX=0.5;entryY=1.009;entryDx=0;entryDy=0;entryPerimeter=0;endArrow=none;endFill=0;" edge="1" parent="1" source="b99Ah2XA37YD6QNn5OcU-85" target="b99Ah2XA37YD6QNn5OcU-43">
          <mxGeometry relative="1" as="geometry">
            <Array as="points">
              <mxPoint x="1410" y="470" />
              <mxPoint x="1410" y="470" />
            </Array>
          </mxGeometry>
        </mxCell>
        <mxCell id="b99Ah2XA37YD6QNn5OcU-85" value="&lt;&lt; interface &gt;&gt;&#xa;AdminUserRepository" style="swimlane;fontStyle=1;align=center;verticalAlign=middle;childLayout=stackLayout;horizontal=1;startSize=40;horizontalStack=0;resizeParent=1;resizeLast=0;collapsible=1;marginBottom=0;rounded=0;shadow=0;strokeWidth=1;" vertex="1" parent="1">
          <mxGeometry x="1281" y="540" width="259" height="100" as="geometry">
            <mxRectangle x="960" y="495" width="170" height="26" as="alternateBounds" />
          </mxGeometry>
        </mxCell>
        <mxCell id="b99Ah2XA37YD6QNn5OcU-86" value="" style="line;html=1;strokeWidth=1;align=left;verticalAlign=middle;spacingTop=-1;spacingLeft=3;spacingRight=3;rotatable=0;labelPosition=right;points=[];portConstraint=eastwest;" vertex="1" parent="b99Ah2XA37YD6QNn5OcU-85">
          <mxGeometry y="40" width="259" height="20" as="geometry" />
        </mxCell>
        <mxCell id="b99Ah2XA37YD6QNn5OcU-87" value="&lt;p style=&quot;margin-top: 0pt; margin-bottom: 0pt; margin-left: 0in; direction: ltr; unicode-bidi: embed; word-break: normal;&quot;&gt;&lt;/p&gt;&lt;font face=&quot;Calibri&quot;&gt;+ deleteByUsersId ( usersId : Integer ) : void&lt;br&gt;+ findAllByOrderByUserIdAsc() : List&amp;lt;AdminUser&amp;gt;&lt;br&gt;&lt;/font&gt;" style="text;align=left;verticalAlign=middle;resizable=0;points=[];autosize=1;strokeColor=none;fillColor=none;spacing=2;html=1;spacingTop=-1;" vertex="1" parent="b99Ah2XA37YD6QNn5OcU-85">
          <mxGeometry y="60" width="259" height="40" as="geometry" />
        </mxCell>
        <mxCell id="b99Ah2XA37YD6QNn5OcU-88" style="edgeStyle=orthogonalEdgeStyle;rounded=0;orthogonalLoop=1;jettySize=auto;html=1;exitX=0.5;exitY=0;exitDx=0;exitDy=0;entryX=0.499;entryY=0.999;entryDx=0;entryDy=0;entryPerimeter=0;endArrow=none;endFill=0;" edge="1" parent="1" source="b99Ah2XA37YD6QNn5OcU-89" target="b99Ah2XA37YD6QNn5OcU-51">
          <mxGeometry relative="1" as="geometry" />
        </mxCell>
        <mxCell id="b99Ah2XA37YD6QNn5OcU-89" value="&lt;&lt; interface &gt;&gt;&#xa;CategoryRepository" style="swimlane;fontStyle=1;align=center;verticalAlign=middle;childLayout=stackLayout;horizontal=1;startSize=40;horizontalStack=0;resizeParent=1;resizeLast=0;collapsible=1;marginBottom=0;rounded=0;shadow=0;strokeWidth=1;" vertex="1" parent="1">
          <mxGeometry x="1580" y="430" width="330" height="80" as="geometry">
            <mxRectangle x="260" y="20" width="170" height="26" as="alternateBounds" />
          </mxGeometry>
        </mxCell>
        <mxCell id="b99Ah2XA37YD6QNn5OcU-90" value="" style="line;html=1;strokeWidth=1;align=left;verticalAlign=middle;spacingTop=-1;spacingLeft=3;spacingRight=3;rotatable=0;labelPosition=right;points=[];portConstraint=eastwest;" vertex="1" parent="b99Ah2XA37YD6QNn5OcU-89">
          <mxGeometry y="40" width="330" height="20" as="geometry" />
        </mxCell>
        <mxCell id="b99Ah2XA37YD6QNn5OcU-91" value="&lt;p style=&quot;margin-top: 0pt; margin-bottom: 0pt; margin-left: 0in; direction: ltr; unicode-bidi: embed; word-break: normal;&quot;&gt;&lt;/p&gt;&lt;font face=&quot;Calibri&quot;&gt;+ findByCategoryNameLike ( categoryName :&lt;/font&gt;&lt;span style=&quot;font-family: Calibri;&quot;&gt;String&amp;nbsp;&lt;/span&gt;&lt;font face=&quot;Calibri&quot;&gt;) :&amp;nbsp;&lt;/font&gt;&lt;span style=&quot;font-family: Calibri;&quot;&gt;Category&amp;nbsp;&lt;/span&gt;&lt;font face=&quot;Calibri&quot;&gt;&lt;br&gt;&lt;/font&gt;" style="text;align=left;verticalAlign=middle;resizable=0;points=[];autosize=1;strokeColor=none;fillColor=none;spacing=2;html=1;spacingTop=-1;" vertex="1" parent="b99Ah2XA37YD6QNn5OcU-89">
          <mxGeometry y="60" width="330" height="20" as="geometry" />
        </mxCell>
        <mxCell id="b99Ah2XA37YD6QNn5OcU-92" style="edgeStyle=orthogonalEdgeStyle;rounded=0;orthogonalLoop=1;jettySize=auto;html=1;exitX=0.5;exitY=0;exitDx=0;exitDy=0;entryX=0.499;entryY=1.037;entryDx=0;entryDy=0;entryPerimeter=0;endArrow=none;endFill=0;" edge="1" parent="1" source="b99Ah2XA37YD6QNn5OcU-93" target="b99Ah2XA37YD6QNn5OcU-67">
          <mxGeometry relative="1" as="geometry" />
        </mxCell>
        <mxCell id="b99Ah2XA37YD6QNn5OcU-93" value="&lt;&lt; interface &gt;&gt;&#xa;OrderDetailRepository" style="swimlane;fontStyle=1;align=center;verticalAlign=middle;childLayout=stackLayout;horizontal=1;startSize=40;horizontalStack=0;resizeParent=1;resizeLast=0;collapsible=1;marginBottom=0;rounded=0;shadow=0;strokeWidth=1;" vertex="1" parent="1">
          <mxGeometry x="1985" y="590" width="280" height="90" as="geometry">
            <mxRectangle x="260" y="20" width="170" height="26" as="alternateBounds" />
          </mxGeometry>
        </mxCell>
        <mxCell id="b99Ah2XA37YD6QNn5OcU-94" value="" style="line;html=1;strokeWidth=1;align=left;verticalAlign=middle;spacingTop=-1;spacingLeft=3;spacingRight=3;rotatable=0;labelPosition=right;points=[];portConstraint=eastwest;" vertex="1" parent="b99Ah2XA37YD6QNn5OcU-93">
          <mxGeometry y="40" width="280" height="20" as="geometry" />
        </mxCell>
        <mxCell id="b99Ah2XA37YD6QNn5OcU-95" value="&lt;p style=&quot;margin-top: 0pt; margin-bottom: 0pt; margin-left: 0in; direction: ltr; unicode-bidi: embed; word-break: normal;&quot;&gt;&lt;/p&gt;&lt;font face=&quot;Calibri&quot;&gt;+ findByOrderId ( orderId :&lt;/font&gt;&lt;span style=&quot;font-family: Calibri;&quot;&gt;Integer&amp;nbsp;&lt;/span&gt;&lt;font face=&quot;Calibri&quot;&gt;) :&amp;nbsp;&lt;/font&gt;&lt;span style=&quot;font-family: Calibri;&quot;&gt;List&amp;lt;OrderDetail&amp;gt;&lt;/span&gt;&lt;font face=&quot;Calibri&quot;&gt;&lt;br&gt;&lt;/font&gt;" style="text;align=left;verticalAlign=middle;resizable=0;points=[];autosize=1;strokeColor=none;fillColor=none;spacing=2;html=1;spacingTop=-1;" vertex="1" parent="b99Ah2XA37YD6QNn5OcU-93">
          <mxGeometry y="60" width="280" height="20" as="geometry" />
        </mxCell>
        <mxCell id="b99Ah2XA37YD6QNn5OcU-96" style="edgeStyle=orthogonalEdgeStyle;rounded=0;orthogonalLoop=1;jettySize=auto;html=1;exitX=0.5;exitY=0;exitDx=0;exitDy=0;entryX=0.498;entryY=1.041;entryDx=0;entryDy=0;entryPerimeter=0;endArrow=none;endFill=0;" edge="1" parent="1" source="b99Ah2XA37YD6QNn5OcU-97" target="b99Ah2XA37YD6QNn5OcU-75">
          <mxGeometry relative="1" as="geometry" />
        </mxCell>
        <mxCell id="b99Ah2XA37YD6QNn5OcU-97" value="&lt;&lt; interface &gt;&gt;&#xa;ProductCategoryRepository" style="swimlane;fontStyle=1;align=center;verticalAlign=middle;childLayout=stackLayout;horizontal=1;startSize=40;horizontalStack=0;resizeParent=1;resizeLast=0;collapsible=1;marginBottom=0;rounded=0;shadow=0;strokeWidth=1;" vertex="1" parent="1">
          <mxGeometry x="2385" y="440" width="340" height="110" as="geometry">
            <mxRectangle x="260" y="20" width="170" height="26" as="alternateBounds" />
          </mxGeometry>
        </mxCell>
        <mxCell id="b99Ah2XA37YD6QNn5OcU-98" value="" style="line;html=1;strokeWidth=1;align=left;verticalAlign=middle;spacingTop=-1;spacingLeft=3;spacingRight=3;rotatable=0;labelPosition=right;points=[];portConstraint=eastwest;" vertex="1" parent="b99Ah2XA37YD6QNn5OcU-97">
          <mxGeometry y="40" width="340" height="20" as="geometry" />
        </mxCell>
        <mxCell id="b99Ah2XA37YD6QNn5OcU-99" value="&lt;p style=&quot;margin-top: 0pt; margin-bottom: 0pt; margin-left: 0in; direction: ltr; unicode-bidi: embed; word-break: normal;&quot;&gt;&lt;/p&gt;&lt;font face=&quot;Calibri&quot;&gt;+ findByProductId ( productId :&lt;/font&gt;&lt;span style=&quot;font-family: Calibri;&quot;&gt;Integer&amp;nbsp;&lt;/span&gt;&lt;font face=&quot;Calibri&quot;&gt;) :&amp;nbsp;&lt;/font&gt;&lt;span style=&quot;font-family: Calibri;&quot;&gt;List&amp;lt;ProductCategory&amp;gt;&lt;br&gt;&lt;/span&gt;&lt;font face=&quot;Calibri&quot;&gt;+ findByCategoryId ( categoryId :&lt;/font&gt;&lt;span style=&quot;font-family: Calibri;&quot;&gt;Integer&amp;nbsp;&lt;/span&gt;&lt;font face=&quot;Calibri&quot;&gt;) :&amp;nbsp;&lt;/font&gt;&lt;span style=&quot;font-family: Calibri;&quot;&gt;List&amp;lt;ProductCategory&amp;gt;&lt;br&gt;&lt;/span&gt;&lt;font face=&quot;Calibri&quot;&gt;+ deleteByProductId ( productId :&lt;/font&gt;&lt;span style=&quot;font-family: Calibri;&quot;&gt;Integer&amp;nbsp;&lt;/span&gt;&lt;font face=&quot;Calibri&quot;&gt;) : void&lt;br&gt;&lt;/font&gt;" style="text;align=left;verticalAlign=middle;resizable=0;points=[];autosize=1;strokeColor=none;fillColor=none;spacing=2;html=1;spacingTop=-1;" vertex="1" parent="b99Ah2XA37YD6QNn5OcU-97">
          <mxGeometry y="60" width="340" height="50" as="geometry" />
        </mxCell>
        <mxCell id="b99Ah2XA37YD6QNn5OcU-100" style="edgeStyle=orthogonalEdgeStyle;rounded=0;orthogonalLoop=1;jettySize=auto;html=1;exitX=0;exitY=0.25;exitDx=0;exitDy=0;entryX=0.499;entryY=1.026;entryDx=0;entryDy=0;entryPerimeter=0;endArrow=none;endFill=0;" edge="1" parent="1" source="b99Ah2XA37YD6QNn5OcU-101" target="b99Ah2XA37YD6QNn5OcU-67">
          <mxGeometry relative="1" as="geometry">
            <Array as="points">
              <mxPoint x="1930" y="770" />
              <mxPoint x="1930" y="540" />
              <mxPoint x="2125" y="540" />
            </Array>
          </mxGeometry>
        </mxCell>
        <mxCell id="b99Ah2XA37YD6QNn5OcU-101" value="&lt;&lt; interface &gt;&gt;&#xa;ProductOrderRepository" style="swimlane;fontStyle=1;align=center;verticalAlign=middle;childLayout=stackLayout;horizontal=1;startSize=40;horizontalStack=0;resizeParent=1;resizeLast=0;collapsible=1;marginBottom=0;rounded=0;shadow=0;strokeWidth=1;" vertex="1" parent="1">
          <mxGeometry x="1950" y="740" width="350" height="120" as="geometry">
            <mxRectangle x="260" y="20" width="170" height="26" as="alternateBounds" />
          </mxGeometry>
        </mxCell>
        <mxCell id="b99Ah2XA37YD6QNn5OcU-102" value="" style="line;html=1;strokeWidth=1;align=left;verticalAlign=middle;spacingTop=-1;spacingLeft=3;spacingRight=3;rotatable=0;labelPosition=right;points=[];portConstraint=eastwest;" vertex="1" parent="b99Ah2XA37YD6QNn5OcU-101">
          <mxGeometry y="40" width="350" height="20" as="geometry" />
        </mxCell>
        <mxCell id="b99Ah2XA37YD6QNn5OcU-103" value="&lt;p style=&quot;margin-top: 0pt; margin-bottom: 0pt; margin-left: 0in; direction: ltr; unicode-bidi: embed; word-break: normal;&quot;&gt;&lt;/p&gt;&lt;font face=&quot;Calibri&quot;&gt;+ findAllByOrderByOrderIdDesc () :&amp;nbsp;&lt;/font&gt;&lt;span style=&quot;font-family: Calibri;&quot;&gt;List&amp;lt;ProductOrder&amp;gt;&lt;br&gt;&lt;/span&gt;&lt;font face=&quot;Calibri&quot;&gt;+ findByUserId ( userId :&lt;/font&gt;&lt;span style=&quot;font-family: Calibri;&quot;&gt;Integer&amp;nbsp;&lt;/span&gt;&lt;font face=&quot;Calibri&quot;&gt;) :&amp;nbsp;&lt;/font&gt;&lt;span style=&quot;font-family: Calibri;&quot;&gt;List&amp;lt;ProductOrder&amp;gt;&lt;br&gt;&lt;/span&gt;&lt;font face=&quot;Calibri&quot;&gt;+ getProductOrderByUserId ( userId :&lt;/font&gt;&lt;span style=&quot;font-family: Calibri;&quot;&gt;Integer&amp;nbsp;&lt;/span&gt;&lt;font face=&quot;Calibri&quot;&gt;) :&amp;nbsp;&lt;/font&gt;&lt;span style=&quot;font-family: Calibri;&quot;&gt;List&amp;lt;ProductOrder&amp;gt;&lt;/span&gt;&lt;font face=&quot;Calibri&quot;&gt;&lt;br&gt;&lt;/font&gt;" style="text;align=left;verticalAlign=middle;resizable=0;points=[];autosize=1;strokeColor=none;fillColor=none;spacing=2;html=1;spacingTop=-1;" vertex="1" parent="b99Ah2XA37YD6QNn5OcU-101">
          <mxGeometry y="60" width="350" height="50" as="geometry" />
        </mxCell>
        <mxCell id="b99Ah2XA37YD6QNn5OcU-104" style="edgeStyle=orthogonalEdgeStyle;rounded=0;orthogonalLoop=1;jettySize=auto;html=1;exitX=0;exitY=0.25;exitDx=0;exitDy=0;entryX=0.498;entryY=1.011;entryDx=0;entryDy=0;entryPerimeter=0;endArrow=none;endFill=0;" edge="1" parent="1" source="b99Ah2XA37YD6QNn5OcU-105" target="b99Ah2XA37YD6QNn5OcU-83">
          <mxGeometry relative="1" as="geometry">
            <Array as="points">
              <mxPoint x="2815" y="757" />
              <mxPoint x="2815" y="510" />
              <mxPoint x="3029" y="510" />
            </Array>
          </mxGeometry>
        </mxCell>
        <mxCell id="b99Ah2XA37YD6QNn5OcU-105" value="&lt;&lt; interface &gt;&gt;&#xa;ProductMaxQuantityRepository" style="swimlane;fontStyle=1;align=center;verticalAlign=middle;childLayout=stackLayout;horizontal=1;startSize=40;horizontalStack=0;resizeParent=1;resizeLast=0;collapsible=1;marginBottom=0;rounded=0;shadow=0;strokeWidth=1;" vertex="1" parent="1">
          <mxGeometry x="2835" y="730" width="390" height="110" as="geometry">
            <mxRectangle x="260" y="20" width="170" height="26" as="alternateBounds" />
          </mxGeometry>
        </mxCell>
        <mxCell id="b99Ah2XA37YD6QNn5OcU-106" value="" style="line;html=1;strokeWidth=1;align=left;verticalAlign=middle;spacingTop=-1;spacingLeft=3;spacingRight=3;rotatable=0;labelPosition=right;points=[];portConstraint=eastwest;" vertex="1" parent="b99Ah2XA37YD6QNn5OcU-105">
          <mxGeometry y="40" width="390" height="20" as="geometry" />
        </mxCell>
        <mxCell id="b99Ah2XA37YD6QNn5OcU-107" value="&lt;p style=&quot;margin-top: 0pt; margin-bottom: 0pt; margin-left: 0in; direction: ltr; unicode-bidi: embed; word-break: normal;&quot;&gt;&lt;/p&gt;&lt;font face=&quot;Calibri&quot;&gt;+ findByProductId ( productId :&amp;nbsp;&lt;/font&gt;&lt;span style=&quot;font-family: Calibri;&quot;&gt;Integer&amp;nbsp;&lt;/span&gt;&lt;font face=&quot;Calibri&quot;&gt;) :&amp;nbsp;&lt;/font&gt;&lt;span style=&quot;font-family: Calibri;&quot;&gt;ProductMaxQuantity&lt;br&gt;&lt;/span&gt;&lt;font face=&quot;Calibri&quot;&gt;+&amp;nbsp;&lt;span style=&quot;background-color: initial;&quot;&gt;updateMaxQuantity ( productId :&lt;/span&gt;&lt;/font&gt;&lt;span style=&quot;font-family: Calibri;&quot;&gt;Integer&lt;/span&gt;&lt;font face=&quot;Calibri&quot;&gt;&lt;span style=&quot;background-color: initial;&quot;&gt;,&lt;/span&gt;&lt;/font&gt;&lt;span style=&quot;font-family: Calibri; background-color: initial;&quot;&gt;&amp;nbsp;maxQuantity : Integer ) : Integer&lt;/span&gt;&lt;font face=&quot;Calibri&quot;&gt;&lt;span style=&quot;background-color: initial;&quot;&gt;&lt;br&gt;&lt;/span&gt;&lt;/font&gt;" style="text;align=left;verticalAlign=middle;resizable=0;points=[];autosize=1;strokeColor=none;fillColor=none;spacing=2;html=1;spacingTop=-1;" vertex="1" parent="b99Ah2XA37YD6QNn5OcU-105">
          <mxGeometry y="60" width="390" height="40" as="geometry" />
        </mxCell>
        <mxCell id="b99Ah2XA37YD6QNn5OcU-108" style="edgeStyle=orthogonalEdgeStyle;rounded=0;orthogonalLoop=1;jettySize=auto;html=1;exitX=0.5;exitY=0;exitDx=0;exitDy=0;entryX=0.498;entryY=1.023;entryDx=0;entryDy=0;entryPerimeter=0;endArrow=none;endFill=0;" edge="1" parent="1" source="b99Ah2XA37YD6QNn5OcU-109" target="b99Ah2XA37YD6QNn5OcU-83">
          <mxGeometry relative="1" as="geometry" />
        </mxCell>
        <mxCell id="b99Ah2XA37YD6QNn5OcU-109" value="&lt;&lt; interface &gt;&gt;&#xa;ProductOptionColorRepository" style="swimlane;fontStyle=1;align=center;verticalAlign=middle;childLayout=stackLayout;horizontal=1;startSize=40;horizontalStack=0;resizeParent=1;resizeLast=0;collapsible=1;marginBottom=0;rounded=0;shadow=0;strokeWidth=1;" vertex="1" parent="1">
          <mxGeometry x="2855" y="580" width="350" height="110" as="geometry">
            <mxRectangle x="260" y="20" width="170" height="26" as="alternateBounds" />
          </mxGeometry>
        </mxCell>
        <mxCell id="b99Ah2XA37YD6QNn5OcU-110" value="" style="line;html=1;strokeWidth=1;align=left;verticalAlign=middle;spacingTop=-1;spacingLeft=3;spacingRight=3;rotatable=0;labelPosition=right;points=[];portConstraint=eastwest;" vertex="1" parent="b99Ah2XA37YD6QNn5OcU-109">
          <mxGeometry y="40" width="350" height="20" as="geometry" />
        </mxCell>
        <mxCell id="b99Ah2XA37YD6QNn5OcU-111" value="&lt;p style=&quot;margin-top: 0pt; margin-bottom: 0pt; margin-left: 0in; direction: ltr; unicode-bidi: embed; word-break: normal;&quot;&gt;&lt;/p&gt;&lt;font face=&quot;Calibri&quot;&gt;+ findByProductId ( productId :&amp;nbsp;&lt;/font&gt;&lt;span style=&quot;font-family: Calibri;&quot;&gt;Integer&amp;nbsp;&lt;/span&gt;&lt;font face=&quot;Calibri&quot;&gt;) :&amp;nbsp;&lt;/font&gt;&lt;span style=&quot;font-family: Calibri;&quot;&gt;List&amp;lt;ProductOptionColor&amp;gt;&lt;br&gt;&lt;/span&gt;&lt;font face=&quot;Calibri&quot;&gt;+ deleteByProductId ( productId :&amp;nbsp;&lt;/font&gt;&lt;span style=&quot;font-family: Calibri;&quot;&gt;Integer&amp;nbsp;&lt;/span&gt;&lt;font face=&quot;Calibri&quot;&gt;) : void&lt;br&gt;&lt;/font&gt;" style="text;align=left;verticalAlign=middle;resizable=0;points=[];autosize=1;strokeColor=none;fillColor=none;spacing=2;html=1;spacingTop=-1;" vertex="1" parent="b99Ah2XA37YD6QNn5OcU-109">
          <mxGeometry y="60" width="350" height="40" as="geometry" />
        </mxCell>
      </root>
    </mxGraphModel>
  </diagram>
</mxfile>
